<svg width="48" height="47" viewBox="0 0 48 47" fill="none" xmlns="http://www.w3.org/2000/svg">
<path fill-rule="evenodd" clip-rule="evenodd" d="M22.7563 2.27948C23.4034 0.513951 25.3681 -0.395659 27.1304 0.250522L45.4977 6.97737C47.3873 7.66967 48.3617 9.76999 47.6693 11.6587L37.1551 40.3681C36.6496 41.7477 35.34 42.605 33.9497 42.605C33.5605 42.605 33.1663 42.5382 32.7808 42.3971L26.743 40.1859V43.1559C26.743 45.036 25.2139 46.5652 23.3343 46.5652H3.774C1.76179 46.5652 0.125 44.9286 0.125 42.9162V12.3419C0.125 10.4618 1.65417 8.93267 3.53374 8.93267H20.3195L22.7563 2.27948ZM19.6472 10.7686H3.53374C2.66613 10.7686 1.96074 11.4745 1.96074 12.3421V42.9164C1.96074 43.9162 2.77466 44.7296 3.774 44.7296H23.3345C24.2021 44.7296 24.9075 44.0238 24.9075 43.1562H24.9071V39.5141L14.4135 35.6709C12.9247 35.1253 12.019 33.7044 12.0341 32.2028C11.5497 32.4029 11.0266 32.5201 10.4795 32.5201C8.3131 32.5201 6.54987 30.8517 6.54987 28.8007C6.54987 27.0744 10.5171 22.6906 12.223 20.8859C12.396 20.7025 12.6372 20.5986 12.8898 20.5986C13.1425 20.5986 13.3836 20.7025 13.5567 20.8859C13.5941 20.9253 14.3281 21.7048 15.2545 22.7627L19.6472 10.7686ZM21.569 41.7796C21.7817 41.1986 22.4256 40.9001 23.0066 41.1128C23.5876 41.3255 23.8862 41.9691 23.6734 42.5504C23.4607 43.1314 22.8171 43.4299 22.2358 43.2172C21.6546 43.0045 21.356 42.3606 21.569 41.7796ZM26.4993 1.97428C25.6836 1.67804 24.7792 2.09613 24.4798 2.91097L13.9665 31.6199C13.6223 32.5589 14.1062 33.6027 15.0448 33.9469L33.4121 40.6736C34.2296 40.9721 35.1321 40.5522 35.4316 39.7369L45.9449 11.0279C46.2891 10.089 45.8052 9.0451 44.8666 8.7009L26.4993 1.97428ZM32.5835 38.1079C32.7962 37.5269 33.4401 37.2283 34.0211 37.4411C34.6023 37.654 34.9008 38.2977 34.6879 38.8787C34.4752 39.4597 33.8313 39.7582 33.2503 39.5455C32.6693 39.3328 32.3707 38.6891 32.5835 38.1079ZM17.0696 32.426C17.2823 31.845 17.926 31.5463 18.5072 31.7592C19.0884 31.9721 19.387 32.6158 19.174 33.1968C18.9613 33.7778 18.3177 34.0764 17.7364 33.8637C17.1554 33.6509 16.8566 33.0073 17.0696 32.426ZM12.8871 22.8669C10.6677 25.2937 8.46799 28.0783 8.38469 28.816C8.38561 29.8392 9.32505 30.6841 10.4795 30.6841C11.1528 30.6841 11.7703 30.3955 12.1737 29.8918C12.3189 29.7103 12.5319 29.6118 12.7586 29.5779L14.5356 24.7251C14.5257 24.7145 14.5119 24.7102 14.5023 24.6989C13.8956 23.9855 13.3121 23.3334 12.8871 22.8669ZM31.1784 14.4624C31.4042 14.3499 31.667 14.3355 31.9035 14.422C32.141 14.509 32.331 14.6896 32.4318 14.9211C33.4125 17.2025 35.6301 22.6833 35.0358 24.3043C34.6907 25.2487 33.9754 25.9899 33.0208 26.3915C32.5332 26.5969 32.0123 26.6994 31.4871 26.6994C31.01 26.6994 30.5306 26.6152 30.0671 26.4454C29.6061 26.2765 29.1944 26.0266 28.8344 25.7221L28.0198 27.9459C27.8835 28.3179 27.5313 28.5487 27.1575 28.5487C27.0526 28.5487 26.9459 28.5304 26.8419 28.4923C26.366 28.3179 26.1212 27.7908 26.2951 27.3149L27.1345 25.0232C26.6033 25.0482 26.0629 24.9793 25.5413 24.788C24.567 24.4311 23.7781 23.7388 23.321 22.8389C22.8522 21.9166 22.784 20.8884 23.131 19.9437C23.7235 18.3229 28.9563 15.5707 31.1784 14.4624ZM31.1245 16.5501C28.205 18.0659 25.1797 19.9251 24.8481 20.5896C24.6849 21.0362 24.7219 21.5447 24.9566 22.0073C25.204 22.4921 25.6352 22.8678 26.1721 23.0644C26.7561 23.2788 27.3729 23.2331 27.8982 22.9655C28.0891 22.5197 28.5923 22.2911 29.0513 22.4593C29.5272 22.6337 29.772 23.1608 29.5981 23.6367L29.5524 23.7613C29.8016 24.1962 30.1995 24.539 30.6979 24.7217C31.2367 24.9179 31.8085 24.9094 32.3088 24.6992C32.7874 24.4979 33.1433 24.1335 33.3118 23.6728C33.4839 22.9644 32.3751 19.5921 31.1245 16.5501ZM7.46797 11.6863C7.97532 11.6863 8.38584 12.0973 8.38584 12.6041V16.7346C8.38584 17.9999 7.35691 19.0292 6.09116 19.0292C4.82542 19.0292 3.79648 17.9999 3.79648 16.7346C3.79648 16.2277 4.207 15.8167 4.71436 15.8167C5.22171 15.8167 5.63223 16.2277 5.63223 16.7346C5.63223 16.9879 5.83829 17.1935 6.09116 17.1935C6.34404 17.1935 6.5501 16.9879 6.5501 16.7346V12.6041C6.5501 12.0973 6.96062 11.6863 7.46797 11.6863ZM27.8619 4.68797C28.1065 4.3837 28.5152 4.26713 28.8828 4.39494C29.2504 4.5239 29.4969 4.87132 29.4969 5.26118V10.7684C29.4969 11.2753 29.0864 11.6863 28.579 11.6863C28.0717 11.6863 27.6611 11.2753 27.6611 10.7684V10.4937L26.0397 9.90469L25.76 10.2544C25.4436 10.6505 24.8662 10.7156 24.4692 10.3978C24.0739 10.0814 24.0094 9.50381 24.3258 9.10798L27.8619 4.68797ZM27.6611 7.87757L27.2504 8.39112L27.6611 8.54028V7.87757Z" fill="#EE7438"/>
</svg>
