<svg width="48" height="48" viewBox="0 0 48 48" fill="none" xmlns="http://www.w3.org/2000/svg">
<path fill-rule="evenodd" clip-rule="evenodd" d="M45.9919 18.6912H36.8912C36.0547 18.6912 35.3744 19.3715 35.3744 20.208V21.7248C35.3744 22.0023 35.4548 22.2594 35.5852 22.4832C35.4548 22.7069 35.3744 22.964 35.3744 23.2416V24.7583H26.2737C25.4372 24.7583 24.7569 25.4386 24.7569 26.2751V27.7919C24.7569 28.0695 24.8373 28.3266 24.9677 28.5503C24.8373 28.774 24.7569 29.0311 24.7569 29.3087V30.8255H15.6562C14.8196 30.8255 14.1394 31.5058 14.1394 32.3423V33.8591C14.1394 34.1366 14.2198 34.3937 14.3502 34.6175C14.2198 34.8412 14.1394 35.0983 14.1394 35.3759V36.8926H5.03864C4.20214 36.8926 3.52186 37.5729 3.52186 38.4094V39.9262C3.52186 40.2038 3.60225 40.4609 3.73269 40.6846C3.60225 40.9083 3.52186 41.1654 3.52186 41.443V42.9598C3.52186 43.2374 3.60225 43.4945 3.73269 43.7182C3.60225 43.9419 3.52186 44.199 3.52186 44.4766V45.9934C3.52186 46.8299 4.20214 47.5102 5.03864 47.5102H14.1394C14.4169 47.5102 14.674 47.4298 14.8978 47.2993C15.1215 47.4298 15.3786 47.5102 15.6562 47.5102H24.7569C25.0345 47.5102 25.2915 47.4298 25.5153 47.2993C25.739 47.4298 25.9961 47.5102 26.2737 47.5102H35.3744C35.652 47.5102 35.9091 47.4298 36.1328 47.2993C36.3565 47.4298 36.6136 47.5102 36.8912 47.5102H45.9919C46.8284 47.5102 47.5087 46.8299 47.5087 45.9934V44.4766C47.5087 44.199 47.4283 43.9419 47.2979 43.7182C47.4283 43.4945 47.5087 43.2374 47.5087 42.9598V41.443C47.5087 41.1654 47.4283 40.9083 47.2979 40.6846C47.4283 40.4609 47.5087 40.2038 47.5087 39.9262V38.4094C47.5087 38.1319 47.4283 37.8748 47.2979 37.651C47.4283 37.4273 47.5087 37.1702 47.5087 36.8926V35.3759C47.5087 35.0983 47.4283 34.8412 47.2979 34.6175C47.4283 34.3937 47.5087 34.1366 47.5087 33.8591V32.3423C47.5087 32.0647 47.4283 31.8076 47.2979 31.5839C47.4283 31.3602 47.5087 31.1031 47.5087 30.8255V29.3087C47.5087 29.0311 47.4283 28.774 47.2979 28.5503C47.4283 28.3266 47.5087 28.0695 47.5087 27.7919V26.2751C47.5087 25.9976 47.4283 25.7405 47.2979 25.5167C47.4283 25.293 47.5087 25.0359 47.5087 24.7583V23.2416C47.5087 22.964 47.4283 22.7069 47.2979 22.4832C47.4283 22.2594 47.5087 22.0023 47.5087 21.7248V20.208C47.5087 19.6503 47.0031 19.1447 45.9919 18.6912ZM36.8912 20.208H45.9919L45.9927 21.7248H36.8912V20.208ZM45.9927 24.7583H36.8912V23.2416H45.9919L45.9927 24.7583ZM45.9927 27.7919H36.8912V26.2751H45.9919L45.9927 27.7919ZM45.9927 30.8255H36.8912V29.3087H45.9919L45.9927 30.8255ZM45.9927 33.8591H36.8912V32.3423H45.9919L45.9927 33.8591ZM45.9927 36.8926H36.8912V35.3759H45.9919L45.9927 36.8926ZM45.9927 39.9262H36.8912V38.4094H45.9919L45.9927 39.9262ZM45.9927 42.9598H36.8912V41.443H45.9919L45.9927 42.9598ZM5.03864 41.443H14.1394V42.9598H5.03864V41.443ZM15.6562 35.3759H24.7569V36.8926H15.6562V35.3759ZM26.2737 29.3087H35.3744V30.8255H26.2737V29.3087ZM35.3744 39.9262H26.2737V38.4094H35.3744V39.9262ZM35.3744 36.8926H26.2737V35.3759H35.3744V36.8926ZM35.3744 32.3423V33.8591H26.2737V32.3423H35.3744ZM24.7569 38.4094V39.9262H15.6562V38.4094H24.7569ZM15.6562 41.443H24.7569V42.9598H15.6562V41.443ZM26.2737 41.443H35.3744V42.9598H26.2737V41.443ZM26.2737 26.2751H35.3744V27.7919H26.2737V26.2751ZM15.6562 32.3423H24.7569V33.8591H15.6562V32.3423ZM5.03864 38.4094H14.1394V39.9262H5.03864V38.4094ZM5.03864 45.9934V44.4766H14.1394V45.9934H5.03864ZM15.6562 45.9934V44.4766H24.7569V45.9934H15.6562ZM26.2737 45.9934V44.4766H35.3744V45.9934H26.2737ZM36.8912 45.9934V44.4766H45.9919L45.9927 45.9934H36.8912ZM40.6831 2.00653H44.7739L41.644 4.82321C34.0298 11.6768 25.7526 17.857 17.0288 23.2355C17.1191 22.7448 17.1729 22.2412 17.1729 21.7248C17.1729 19.8713 16.5541 18.086 15.4294 16.6306C15.5705 16.3341 15.6562 16.0072 15.6562 15.6576C15.6562 15.3694 15.597 15.0957 15.4984 14.8416L17.5628 13.0723C17.8965 13.2641 18.2779 13.3824 18.6897 13.3824C19.3018 13.3824 19.8554 13.1367 20.2649 12.7424L22.5098 13.8648C22.4984 13.9565 22.4817 14.0468 22.4817 14.1408C22.4817 15.3952 23.5025 16.416 24.7569 16.416C26.0113 16.416 27.0321 15.3952 27.0321 14.1408C27.0321 13.8322 26.9691 13.5387 26.8576 13.2702L31.2624 9.30607C31.5847 9.48202 31.9487 9.59047 32.3408 9.59047C33.5952 9.59047 34.616 8.56967 34.616 7.31529C34.616 6.06091 33.5952 5.04011 32.3408 5.04011C31.0864 5.04011 30.0656 6.06091 30.0656 7.31529C30.0656 7.62396 30.1286 7.91745 30.2401 8.18593L25.8353 12.15C25.513 11.9749 25.149 11.8657 24.7569 11.8657C24.1449 11.8657 23.5912 12.1114 23.1817 12.5057L20.9368 11.3833C20.9482 11.2915 20.9649 11.2013 20.9649 11.1073C20.9649 9.85287 19.9441 8.83208 18.6897 8.83208C17.4353 8.83208 16.4145 9.85287 16.4145 11.1073C16.4145 11.3954 16.4737 11.6692 16.5723 11.9233L14.5079 13.6926C14.1743 13.5007 13.7928 13.3824 13.381 13.3824C12.8 13.3824 12.2752 13.6077 11.8725 13.9672C10.9048 13.5864 9.8863 13.3824 8.83061 13.3824C4.23095 13.3824 0.488281 17.1251 0.488281 21.7248C0.488281 25.2976 2.75057 28.344 5.91383 29.5309C5.0924 29.9558 3.9058 30.5533 2.35405 31.3233C1.97808 31.5099 1.82242 31.9644 2.00507 32.3423C2.18543 32.7154 2.63414 32.8717 3.0073 32.6914C3.00974 32.6902 3.01217 32.689 3.01459 32.6878C5.31181 31.5467 7.05002 30.6627 8.22921 30.036C8.42866 30.0512 8.62736 30.0671 8.83061 30.0671C12.0758 30.0671 14.8871 28.2007 16.2659 25.4879C25.6434 19.844 34.5227 13.2732 42.6588 5.95094L45.9919 2.95073V7.31529C45.9919 7.73414 46.3314 8.07368 46.7503 8.07368C47.1691 8.07368 47.5087 7.73414 47.5087 7.31529V0.489746H40.6831C40.2643 0.489746 39.9248 0.82929 39.9248 1.24814C39.9248 1.66699 40.2643 2.00653 40.6831 2.00653ZM32.3408 6.5569C32.7587 6.5569 33.0992 6.89741 33.0992 7.31529C33.0992 7.73316 32.7587 8.07368 32.3408 8.07368C31.9229 8.07368 31.5824 7.73316 31.5824 7.31529C31.5824 6.89741 31.9229 6.5569 32.3408 6.5569ZM24.7569 13.3824C25.1748 13.3824 25.5153 13.723 25.5153 14.1408C25.5153 14.5587 25.1748 14.8992 24.7569 14.8992C24.339 14.8992 23.9985 14.5587 23.9985 14.1408C23.9985 13.723 24.339 13.3824 24.7569 13.3824ZM18.6897 10.3489C19.1076 10.3489 19.4481 10.6894 19.4481 11.1073C19.4481 11.5251 19.1076 11.8657 18.6897 11.8657C18.2719 11.8657 17.9313 11.5251 17.9313 11.1073C17.9313 10.6894 18.2719 10.3489 18.6897 10.3489ZM13.381 14.8992C13.7988 14.8992 14.1394 15.2397 14.1394 15.6576C14.1394 16.0755 13.7988 16.416 13.381 16.416C12.9631 16.416 12.6226 16.0755 12.6226 15.6576C12.6226 15.2397 12.9631 14.8992 13.381 14.8992ZM8.83061 28.5503C5.06746 28.5503 2.00507 25.4879 2.00507 21.7248C2.00507 17.9616 5.06746 14.8992 8.83061 14.8992C9.62996 14.8992 10.4043 15.038 11.1414 15.3042C11.1232 15.4202 11.1058 15.5363 11.1058 15.6576C11.1058 16.912 12.1266 17.9328 13.381 17.9328C13.7283 17.9328 14.0537 17.8486 14.3479 17.7091C15.1943 18.8709 15.6562 20.2732 15.6562 21.7248C15.6562 25.4879 12.5938 28.5503 8.83061 28.5503ZM8.07222 20.208C8.07222 20.6259 8.41274 20.9664 8.83061 20.9664C10.085 20.9664 11.1058 21.9872 11.1058 23.2416C11.1058 24.229 10.4695 25.0632 9.58901 25.3772V26.2751C9.58901 26.694 9.24946 27.0335 8.83061 27.0335C8.41176 27.0335 8.07222 26.694 8.07222 26.2751V25.3772C7.19172 25.0632 6.55543 24.229 6.55543 23.2416H8.07222C8.07222 23.6594 8.41274 24 8.83061 24C9.24849 24 9.58901 23.6594 9.58901 23.2416C9.58901 22.8237 9.24849 22.4832 8.83061 22.4832C7.57623 22.4832 6.55543 21.4624 6.55543 20.208C6.55543 19.2206 7.19172 18.3863 8.07222 18.0723V17.1744C8.07222 16.7556 8.41176 16.416 8.83061 16.416C9.24946 16.416 9.58901 16.7556 9.58901 17.1744V18.0723C10.4695 18.3863 11.1058 19.2206 11.1058 20.208H9.58901C9.58901 19.7901 9.24849 19.4496 8.83061 19.4496C8.41274 19.4496 8.07222 19.7901 8.07222 20.208Z" fill="#C956FF" stroke="#C956FF" stroke-width="0.7"/>
</svg>
