<svg width="48" height="40" viewBox="0 0 48 40" fill="none" xmlns="http://www.w3.org/2000/svg">
<path fill-rule="evenodd" clip-rule="evenodd" d="M13.2926 17.025C12.9025 17.4152 12.9025 18.049 13.2926 18.4391C13.6833 18.8297 14.3161 18.8297 14.7071 18.4391C15.0973 18.0489 15.0973 17.4152 14.7071 17.025C14.3161 16.6344 13.6833 16.6344 13.2926 17.025Z" fill="#FF5667"/>
<path fill-rule="evenodd" clip-rule="evenodd" d="M4.29299 24.054C3.90234 24.4436 3.90234 25.0761 4.29299 25.4676C4.68309 25.8581 5.31684 25.8581 5.70702 25.4676C6.09721 25.0761 6.09721 24.4436 5.70702 24.054C5.31684 23.6625 4.68309 23.6625 4.29299 24.054Z" fill="#FF5667"/>
<path fill-rule="evenodd" clip-rule="evenodd" d="M10.7069 31.0247C10.3163 30.6339 9.68346 30.6339 9.29327 31.0247C8.90224 31.4143 8.90224 32.0486 9.29327 32.4383C9.68346 32.8298 10.3163 32.8298 10.7069 32.4383C11.098 32.0486 11.098 31.4143 10.7069 31.0247Z" fill="#FF5667"/>
<path fill-rule="evenodd" clip-rule="evenodd" d="M17.2926 31.053C16.9025 31.4437 16.9025 32.0769 17.2926 32.4676C17.6833 32.8573 18.3165 32.8573 18.7071 32.4676C19.0973 32.0769 19.0973 31.4437 18.7071 31.053C18.3166 30.6633 17.6833 30.6633 17.2926 31.053Z" fill="#FF5667"/>
<path fill-rule="evenodd" clip-rule="evenodd" d="M19.793 27.5531C19.4023 27.9446 19.4023 28.5769 19.793 28.9667C20.184 29.3582 20.8168 29.3582 21.207 28.9667C21.5981 28.5769 21.5981 27.9446 21.207 27.5531C20.8168 27.1624 20.184 27.1624 19.793 27.5531Z" fill="#FF5667"/>
<path fill-rule="evenodd" clip-rule="evenodd" d="M47.9188 15.1413L41.7074 0.624189C41.5465 0.245533 41.1669 0.00515788 40.757 0.0184704L26.8075 0.464252C26.5566 0.472502 26.3185 0.574127 26.1393 0.750095L16.1839 10.5305C15.8902 10.819 15.8029 11.2589 15.9652 11.6371L16.3999 12.6541L14.3632 11.8577C14.1288 11.7672 13.8696 11.7672 13.6361 11.8577L0.635625 16.9349C0.251906 17.0843 0 17.4543 0 17.8656V33.6562C0 34.068 0.251906 34.4365 0.635625 34.5863L13.6361 39.6635C13.7524 39.7085 13.876 39.7316 13.9992 39.7316C14.1229 39.7316 14.2461 39.7086 14.3632 39.6635L27.3628 34.5863C27.747 34.4365 27.9998 34.068 27.9998 33.6562V26.6046L37.0761 26.3141C37.3269 26.3049 37.565 26.2039 37.7452 26.0283L47.7002 16.2479C47.9933 15.9593 48.0816 15.5199 47.9188 15.1413ZM27.2616 2.45053L38.2607 2.09897L30.4114 9.81131L19.4123 10.1629L27.2616 2.45053ZM1.99959 19.3297L12.9996 23.6248V37.2682L1.99959 32.9712V19.3297ZM13.9991 21.8683L3.74822 17.8655L13.9991 13.8632L17.5033 15.2313L19.4344 19.7465L13.9991 21.8683ZM25.9987 32.9712L14.9996 37.2682V23.6248L20.2216 21.5852L22.1756 26.1542C22.3333 26.5219 22.6958 26.7608 23.0952 26.7608C23.1058 26.7608 23.1164 26.7608 23.1274 26.759L25.9987 26.6689V32.9712ZM23.7458 24.7398L18.3797 12.1969L30.1825 11.8196L35.5483 24.3621L23.7458 24.7398ZM37.3875 23.5752L32.0227 11.0332L40.4455 2.757L45.8104 15.3002L37.3875 23.5752Z" fill="#FF5667"/>
<path fill-rule="evenodd" clip-rule="evenodd" d="M29.1573 5.08014C28.6444 4.87426 28.0625 5.12336 27.8577 5.63579C27.6509 6.14861 27.9018 6.73089 28.4129 6.93583C28.9258 7.1417 29.5085 6.89261 29.7134 6.38026C29.9184 5.86736 29.6702 5.28508 29.1573 5.08014Z" fill="#FF5667"/>
<path fill-rule="evenodd" clip-rule="evenodd" d="M23.6341 15.0552C23.1213 14.8498 22.5395 15.0984 22.334 15.6113C22.1281 16.1238 22.3772 16.7064 22.8901 16.9114C23.4025 17.1173 23.9852 16.8682 24.1906 16.3553C24.396 15.843 24.147 15.2607 23.6341 15.0552Z" fill="#FF5667"/>
<path fill-rule="evenodd" clip-rule="evenodd" d="M30.6356 22.3004C31.1485 22.5054 31.7303 22.2563 31.9352 21.7443C32.142 21.2314 31.893 20.6491 31.3801 20.4437C30.8672 20.2377 30.2845 20.4869 30.0796 20.9998C29.8746 21.5127 30.1237 22.0935 30.6356 22.3004Z" fill="#FF5667"/>
<path fill-rule="evenodd" clip-rule="evenodd" d="M29.0198 14.927C28.5088 14.722 27.9251 14.9711 27.7202 15.4839C27.5152 15.996 27.7643 16.5783 28.2771 16.7837C28.79 16.9891 29.3708 16.74 29.5767 16.2271C29.7817 15.7147 29.5325 15.1329 29.0198 14.927Z" fill="#FF5667"/>
<path fill-rule="evenodd" clip-rule="evenodd" d="M25.993 20.5715C25.481 20.3661 24.8984 20.6151 24.6934 21.1275C24.4874 21.6393 24.7364 22.2231 25.2494 22.428C25.7623 22.6331 26.345 22.3838 26.5499 21.871C26.755 21.359 26.5058 20.7773 25.993 20.5715Z" fill="#FF5667"/>
<path fill-rule="evenodd" clip-rule="evenodd" d="M38.8842 8.53185C38.6793 9.04475 38.9284 9.626 39.4404 9.83197C39.9533 10.037 40.5351 9.78782 40.741 9.27538C40.9467 8.7635 40.6977 8.18122 40.1848 7.97535C39.6719 7.77031 39.0893 8.01903 38.8842 8.53185Z" fill="#FF5667"/>
<path fill-rule="evenodd" clip-rule="evenodd" d="M41.8006 15.3485C42.3135 15.5534 42.8944 15.3044 43.1011 14.792C43.3062 14.2791 43.057 13.6968 42.5442 13.4919C42.0322 13.286 41.4504 13.5351 41.2437 14.0475C41.0386 14.5603 41.2878 15.1426 41.8006 15.3485Z" fill="#FF5667"/>
<path fill-rule="evenodd" clip-rule="evenodd" d="M36.3733 11.7809C35.8604 11.5751 35.2776 11.8242 35.0718 12.3366C34.8667 12.8495 35.1159 13.4318 35.6287 13.6376C36.1417 13.8425 36.7224 13.5935 36.9283 13.0811C37.1343 12.5682 36.8853 11.986 36.3733 11.7809Z" fill="#FF5667"/>
<path fill-rule="evenodd" clip-rule="evenodd" d="M38.7356 17.2975C38.2227 17.0917 37.64 17.3408 37.435 17.8531C37.2301 18.366 37.4792 18.9482 37.992 19.1532C38.504 19.3591 39.0858 19.11 39.2908 18.5971C39.4976 18.0848 39.2485 17.5025 38.7356 17.2975Z" fill="#FF5667"/>
<path fill-rule="evenodd" clip-rule="evenodd" d="M39.4582 12.6371C38.9454 12.4321 38.3644 12.6808 38.1577 13.1936C37.9527 13.7065 38.2019 14.2887 38.7139 14.4937C39.2268 14.6996 39.8094 14.4505 40.0153 13.9376C40.2202 13.4252 39.9711 12.843 39.4582 12.6371Z" fill="#FF5667"/>
</svg>
