<svg width="1440" height="467" viewBox="0 0 1440 467" fill="none" xmlns="http://www.w3.org/2000/svg">
<rect width="1440" height="467" fill="url(#paint0_radial)"/>
<mask id="mask0" mask-type="alpha" maskUnits="userSpaceOnUse" x="0" y="0" width="1440" height="467">
<rect width="1440" height="467" fill="white"/>
</mask>
<g mask="url(#mask0)">
<path fill-rule="evenodd" clip-rule="evenodd" d="M96.5 193C149.795 193 193 149.795 193 96.5C193 43.2045 149.795 0 96.5 0C43.2045 0 0 43.2045 0 96.5C0 149.795 43.2045 193 96.5 193Z" fill="url(#paint1_linear)"/>
<path fill-rule="evenodd" clip-rule="evenodd" d="M1312.5 570C1425.44 570 1517 478.442 1517 365.5C1517 252.558 1425.44 161 1312.5 161C1199.56 161 1108 252.558 1108 365.5C1108 478.442 1199.56 570 1312.5 570Z" fill="url(#paint2_linear)"/>
<path fill-rule="evenodd" clip-rule="evenodd" d="M1037 234C1072.35 234 1101 205.346 1101 170C1101 134.654 1072.35 106 1037 106C1001.65 106 973 134.654 973 170C973 205.346 1001.65 234 1037 234Z" fill="url(#paint3_linear)"/>
</g>
<defs>
<radialGradient id="paint0_radial" cx="0" cy="0" r="1" gradientUnits="userSpaceOnUse" gradientTransform="translate(1440 467) rotate(-162.032) scale(1513.83 888.447)">
<stop stop-color="#0E0857"/>
<stop offset="1" stop-color="#000331"/>
</radialGradient>
<linearGradient id="paint1_linear" x1="0" y1="193" x2="193" y2="193" gradientUnits="userSpaceOnUse">
<stop stop-color="white" stop-opacity="0.0755846"/>
<stop offset="1" stop-color="white" stop-opacity="0.01"/>
</linearGradient>
<linearGradient id="paint2_linear" x1="1108" y1="570" x2="1517" y2="570" gradientUnits="userSpaceOnUse">
<stop stop-color="white" stop-opacity="0.0755846"/>
<stop offset="1" stop-color="white" stop-opacity="0.01"/>
</linearGradient>
<linearGradient id="paint3_linear" x1="973" y1="234" x2="1101" y2="234" gradientUnits="userSpaceOnUse">
<stop stop-color="white" stop-opacity="0.0755846"/>
<stop offset="1" stop-color="white" stop-opacity="0.01"/>
</linearGradient>
</defs>
</svg>
