<svg width="50" height="45" viewBox="0 0 50 45" fill="none" xmlns="http://www.w3.org/2000/svg">
<mask id="path-1-outside-1" maskUnits="userSpaceOnUse" x="0" y="0" width="50" height="45" fill="black">
<rect fill="white" width="50" height="45"/>
<path fill-rule="evenodd" clip-rule="evenodd" d="M20.3949 11.027L20.667 8.95275L19.1839 7.41456C18.8364 7.05335 18.6509 6.57956 18.6605 6.07942C18.6702 5.57928 18.8741 5.11299 19.2345 4.76631C19.5111 4.50026 19.8565 4.32786 20.2346 4.26711L22.3433 3.87525L23.3471 1.99085C23.8329 1.07983 24.9687 0.73437 25.8791 1.21988C26.2029 1.39256 26.4667 1.65402 26.642 1.97595L27.6864 3.89728L29.789 4.26974C30.2798 4.35542 30.71 4.62841 30.9978 5.03808C31.2856 5.44776 31.3967 5.94489 31.3107 6.43809C31.242 6.83211 31.0545 7.18563 30.7678 7.46256L29.3178 8.99194L29.6135 11.1078C29.755 12.1321 29.038 13.0794 28.0151 13.2208C27.6492 13.2715 27.2814 13.215 26.9517 13.0576L24.9773 12.117L23.0588 13.0508C22.7955 13.179 22.5163 13.2398 22.2414 13.2398C21.5463 13.2398 20.8774 12.8519 20.5533 12.1862C20.3763 11.8229 20.3218 11.4229 20.3949 11.027ZM23.1297 5.636L20.564 6.11279C20.5534 6.11476 20.5429 6.11654 20.5324 6.11823L22.3302 7.97638C22.5282 8.18178 22.622 8.46611 22.5848 8.74895L22.2504 11.2991C22.2474 11.3217 22.2436 11.3441 22.239 11.3664L24.5627 10.2336C24.8193 10.1086 25.1186 10.1074 25.3762 10.2301L27.759 11.3652L27.3985 8.80426C27.3591 8.5217 27.4504 8.23653 27.6467 8.02954L29.4237 6.15507C29.4369 6.1412 29.4505 6.1277 29.4644 6.11467L26.915 5.66469C26.634 5.615 26.391 5.43998 26.2548 5.18939L24.9969 2.87535L23.7858 5.15508C23.6517 5.40688 23.4102 5.58388 23.1297 5.636Z"/>
<path d="M20.3792 31.0658C20.3792 31.5836 19.9595 32.0033 19.4417 32.0033C18.9239 32.0033 18.5039 31.5836 18.5039 31.0658C18.5039 30.548 18.9233 30.1283 19.441 30.1283C19.9588 30.1283 20.3792 30.548 20.3792 31.0658Z"/>
<path fill-rule="evenodd" clip-rule="evenodd" d="M47.6862 18.3744L48.6237 19.9982C48.9982 20.6469 49.0972 21.4047 48.9026 22.1318C48.7078 22.8588 48.2432 23.4654 47.5945 23.84L38.1246 29.3074V41.3105C38.1246 42.8613 36.863 44.1229 35.3122 44.1229H14.6879C13.1371 44.1229 11.8755 42.8613 11.8755 41.3105V29.3074L2.4056 23.8399C1.06258 23.0646 0.600881 21.3412 1.37626 19.9982L2.31363 18.3744C2.43794 18.1591 2.64268 18.0021 2.88286 17.9376C3.12313 17.8733 3.37887 17.907 3.59421 18.0313L13.064 23.4987H36.9358L46.4056 18.0313C46.6208 17.907 46.8767 17.8732 47.117 17.9376C47.3571 18.002 47.5619 18.1591 47.6862 18.3744ZM36.2495 30.5841L24.5856 42.248H29.4337L36.2495 35.4322V30.5841ZM21.9339 42.248L36.2495 27.9324V25.3736H33.9602L17.0858 42.248H21.9339ZM13.7503 27.9323L16.309 25.3736H13.7503V27.9323ZM2.90845 21.6464C2.97361 21.8897 3.12791 22.092 3.34297 22.2162L11.8754 27.1424V24.9775L3.46868 20.1238L2.99995 20.9357C2.87573 21.1507 2.8433 21.4032 2.90845 21.6464ZM17.1226 34.7114L13.7503 38.0837V41.3105C13.7503 41.7497 14.0543 42.1183 14.4626 42.2195L31.3084 25.3736H26.4603L23.0884 28.7455C22.9054 28.9286 22.6654 29.0201 22.4255 29.0201C22.1856 29.0201 21.9457 28.9286 21.7627 28.7455C21.3966 28.3793 21.3966 27.7857 21.7627 27.4196L23.8088 25.3735H18.9608L13.7503 30.5839V35.432L15.7967 33.3856C16.1629 33.0195 16.7565 33.0194 17.1226 33.3856C17.4887 33.7518 17.4887 34.3454 17.1226 34.7114ZM32.0853 42.248H35.312C35.8289 42.248 36.2495 41.8274 36.2495 41.3105V38.0838L32.0853 42.248ZM46.6569 22.2162C46.8719 22.092 47.0262 21.8897 47.0914 21.6464C47.1565 21.4032 47.1241 21.1507 46.9999 20.9358L46.5311 20.1238L38.1244 24.9775V27.1424L46.6569 22.2162Z"/>
<path d="M24.1133 15.7784V20.1237C24.1133 20.6415 24.533 21.0612 25.0507 21.0612C25.5685 21.0612 25.9882 20.6415 25.9882 20.1237V15.7784C25.9882 15.2606 25.5685 14.8409 25.0507 14.8409C24.533 14.8409 24.1133 15.2606 24.1133 15.7784Z"/>
<path d="M13.1056 14.2233C12.6572 13.9645 12.5036 13.3911 12.7625 12.9428C13.0214 12.4945 13.5949 12.3407 14.0431 12.5996C16.7113 14.1401 18.2474 17.5253 18.3858 20.0729C18.4138 20.5899 18.0176 21.0319 17.5005 21.0599C17.4833 21.0608 17.466 21.0613 17.4489 21.0613C16.9544 21.0613 16.5408 20.6743 16.5136 20.1746C16.4038 18.153 15.099 15.3743 13.1056 14.2233Z"/>
<path fill-rule="evenodd" clip-rule="evenodd" d="M4.42214 10.7583L6.36476 11.5131L7.11904 13.4545C7.2921 13.9016 7.64777 14.2572 8.09504 14.4303C8.29668 14.5082 8.50405 14.5451 8.70832 14.5451C9.39277 14.5451 10.0399 14.1303 10.3006 13.4557L11.0554 11.5131L12.9968 10.7588C13.444 10.5857 13.7996 10.23 13.9725 9.78288C14.1368 9.35784 14.1257 8.89435 13.9413 8.47765C13.757 8.06095 13.4214 7.74099 12.998 7.57731L11.0554 6.82256L10.3009 4.88088C10.1278 4.43371 9.77216 4.07822 9.32499 3.90535C8.44771 3.56618 7.45793 4.00416 7.11951 4.87994L6.36476 6.82256L4.42345 7.57684C3.97619 7.7499 3.62051 8.10557 3.44764 8.55284C3.2834 8.97779 3.29446 9.44136 3.47886 9.85797C3.66307 10.2747 3.99869 10.5946 4.42214 10.7583ZM7.42859 8.42065C7.67374 8.32541 7.8677 8.13154 7.96295 7.8863L8.71011 5.96328L9.45727 7.8863C9.55251 8.13144 9.74638 8.32541 9.99162 8.42065L11.9146 9.16772L9.99162 9.91488C9.74647 10.0101 9.55251 10.204 9.45727 10.4492L8.71011 12.3723L7.96295 10.4492C7.8677 10.2041 7.67383 10.0101 7.42859 9.91488L5.50566 9.16772L7.42859 8.42065Z"/>
<path d="M32.5126 21.0606L32.496 21.0598C31.9791 21.0317 31.5827 20.5899 31.6108 20.0728C31.7491 17.5252 33.2853 14.14 35.9535 12.5996C36.4018 12.3406 36.9752 12.4942 37.2341 12.9427C37.493 13.3911 37.3394 13.9644 36.891 14.2232C34.8975 15.3742 33.5928 18.153 33.483 20.1746C33.4558 20.6742 33.0421 21.0612 32.5477 21.0612C32.536 21.0612 32.5243 21.061 32.5126 21.0606Z"/>
<path fill-rule="evenodd" clip-rule="evenodd" d="M37.0033 10.7582L38.9459 11.513L39.7001 13.4541C39.9614 14.1299 40.6085 14.545 41.2933 14.545C41.4974 14.545 41.705 14.508 41.9066 14.4301C42.3536 14.2572 42.7093 13.9016 42.8819 13.4556L43.6366 11.513L45.5778 10.7588C46.455 10.4196 46.8929 9.43005 46.5538 8.55249C46.3809 8.10541 46.0252 7.74973 45.5793 7.57715L43.6366 6.82239L42.8825 4.88128C42.5435 4.0039 41.554 3.5662 40.6763 3.9051C40.2295 4.07778 39.8741 4.43298 39.7009 4.87968L38.9461 6.8223L37.005 7.5764C36.1276 7.91548 35.6897 8.90516 36.0288 9.78253C36.2016 10.23 36.5573 10.5857 37.0033 10.7582ZM40.0098 8.42058C40.2549 8.32534 40.4489 8.13147 40.5441 7.88623L41.2913 5.96321L42.0384 7.88623C42.1336 8.13138 42.3275 8.32534 42.5727 8.42058L44.4957 9.16765L42.5727 9.91481C42.3276 10.0101 42.1336 10.2039 42.0384 10.4492L41.2913 12.3722L40.5441 10.4492C40.4489 10.204 40.255 10.0101 40.0098 9.91481L38.0868 9.16765L40.0098 8.42058Z"/>
</mask>
<path fill-rule="evenodd" clip-rule="evenodd" d="M20.3949 11.027L20.667 8.95275L19.1839 7.41456C18.8364 7.05335 18.6509 6.57956 18.6605 6.07942C18.6702 5.57928 18.8741 5.11299 19.2345 4.76631C19.5111 4.50026 19.8565 4.32786 20.2346 4.26711L22.3433 3.87525L23.3471 1.99085C23.8329 1.07983 24.9687 0.73437 25.8791 1.21988C26.2029 1.39256 26.4667 1.65402 26.642 1.97595L27.6864 3.89728L29.789 4.26974C30.2798 4.35542 30.71 4.62841 30.9978 5.03808C31.2856 5.44776 31.3967 5.94489 31.3107 6.43809C31.242 6.83211 31.0545 7.18563 30.7678 7.46256L29.3178 8.99194L29.6135 11.1078C29.755 12.1321 29.038 13.0794 28.0151 13.2208C27.6492 13.2715 27.2814 13.215 26.9517 13.0576L24.9773 12.117L23.0588 13.0508C22.7955 13.179 22.5163 13.2398 22.2414 13.2398C21.5463 13.2398 20.8774 12.8519 20.5533 12.1862C20.3763 11.8229 20.3218 11.4229 20.3949 11.027ZM23.1297 5.636L20.564 6.11279C20.5534 6.11476 20.5429 6.11654 20.5324 6.11823L22.3302 7.97638C22.5282 8.18178 22.622 8.46611 22.5848 8.74895L22.2504 11.2991C22.2474 11.3217 22.2436 11.3441 22.239 11.3664L24.5627 10.2336C24.8193 10.1086 25.1186 10.1074 25.3762 10.2301L27.759 11.3652L27.3985 8.80426C27.3591 8.5217 27.4504 8.23653 27.6467 8.02954L29.4237 6.15507C29.4369 6.1412 29.4505 6.1277 29.4644 6.11467L26.915 5.66469C26.634 5.615 26.391 5.43998 26.2548 5.18939L24.9969 2.87535L23.7858 5.15508C23.6517 5.40688 23.4102 5.58388 23.1297 5.636Z" fill="#AAA3FF"/>
<path d="M20.3792 31.0658C20.3792 31.5836 19.9595 32.0033 19.4417 32.0033C18.9239 32.0033 18.5039 31.5836 18.5039 31.0658C18.5039 30.548 18.9233 30.1283 19.441 30.1283C19.9588 30.1283 20.3792 30.548 20.3792 31.0658Z" fill="#AAA3FF"/>
<path fill-rule="evenodd" clip-rule="evenodd" d="M47.6862 18.3744L48.6237 19.9982C48.9982 20.6469 49.0972 21.4047 48.9026 22.1318C48.7078 22.8588 48.2432 23.4654 47.5945 23.84L38.1246 29.3074V41.3105C38.1246 42.8613 36.863 44.1229 35.3122 44.1229H14.6879C13.1371 44.1229 11.8755 42.8613 11.8755 41.3105V29.3074L2.4056 23.8399C1.06258 23.0646 0.600881 21.3412 1.37626 19.9982L2.31363 18.3744C2.43794 18.1591 2.64268 18.0021 2.88286 17.9376C3.12313 17.8733 3.37887 17.907 3.59421 18.0313L13.064 23.4987H36.9358L46.4056 18.0313C46.6208 17.907 46.8767 17.8732 47.117 17.9376C47.3571 18.002 47.5619 18.1591 47.6862 18.3744ZM36.2495 30.5841L24.5856 42.248H29.4337L36.2495 35.4322V30.5841ZM21.9339 42.248L36.2495 27.9324V25.3736H33.9602L17.0858 42.248H21.9339ZM13.7503 27.9323L16.309 25.3736H13.7503V27.9323ZM2.90845 21.6464C2.97361 21.8897 3.12791 22.092 3.34297 22.2162L11.8754 27.1424V24.9775L3.46868 20.1238L2.99995 20.9357C2.87573 21.1507 2.8433 21.4032 2.90845 21.6464ZM17.1226 34.7114L13.7503 38.0837V41.3105C13.7503 41.7497 14.0543 42.1183 14.4626 42.2195L31.3084 25.3736H26.4603L23.0884 28.7455C22.9054 28.9286 22.6654 29.0201 22.4255 29.0201C22.1856 29.0201 21.9457 28.9286 21.7627 28.7455C21.3966 28.3793 21.3966 27.7857 21.7627 27.4196L23.8088 25.3735H18.9608L13.7503 30.5839V35.432L15.7967 33.3856C16.1629 33.0195 16.7565 33.0194 17.1226 33.3856C17.4887 33.7518 17.4887 34.3454 17.1226 34.7114ZM32.0853 42.248H35.312C35.8289 42.248 36.2495 41.8274 36.2495 41.3105V38.0838L32.0853 42.248ZM46.6569 22.2162C46.8719 22.092 47.0262 21.8897 47.0914 21.6464C47.1565 21.4032 47.1241 21.1507 46.9999 20.9358L46.5311 20.1238L38.1244 24.9775V27.1424L46.6569 22.2162Z" fill="#AAA3FF"/>
<path d="M24.1133 15.7784V20.1237C24.1133 20.6415 24.533 21.0612 25.0507 21.0612C25.5685 21.0612 25.9882 20.6415 25.9882 20.1237V15.7784C25.9882 15.2606 25.5685 14.8409 25.0507 14.8409C24.533 14.8409 24.1133 15.2606 24.1133 15.7784Z" fill="#AAA3FF"/>
<path d="M13.1056 14.2233C12.6572 13.9645 12.5036 13.3911 12.7625 12.9428C13.0214 12.4945 13.5949 12.3407 14.0431 12.5996C16.7113 14.1401 18.2474 17.5253 18.3858 20.0729C18.4138 20.5899 18.0176 21.0319 17.5005 21.0599C17.4833 21.0608 17.466 21.0613 17.4489 21.0613C16.9544 21.0613 16.5408 20.6743 16.5136 20.1746C16.4038 18.153 15.099 15.3743 13.1056 14.2233Z" fill="#AAA3FF"/>
<path fill-rule="evenodd" clip-rule="evenodd" d="M4.42214 10.7583L6.36476 11.5131L7.11904 13.4545C7.2921 13.9016 7.64777 14.2572 8.09504 14.4303C8.29668 14.5082 8.50405 14.5451 8.70832 14.5451C9.39277 14.5451 10.0399 14.1303 10.3006 13.4557L11.0554 11.5131L12.9968 10.7588C13.444 10.5857 13.7996 10.23 13.9725 9.78288C14.1368 9.35784 14.1257 8.89435 13.9413 8.47765C13.757 8.06095 13.4214 7.74099 12.998 7.57731L11.0554 6.82256L10.3009 4.88088C10.1278 4.43371 9.77216 4.07822 9.32499 3.90535C8.44771 3.56618 7.45793 4.00416 7.11951 4.87994L6.36476 6.82256L4.42345 7.57684C3.97619 7.7499 3.62051 8.10557 3.44764 8.55284C3.2834 8.97779 3.29446 9.44136 3.47886 9.85797C3.66307 10.2747 3.99869 10.5946 4.42214 10.7583ZM7.42859 8.42065C7.67374 8.32541 7.8677 8.13154 7.96295 7.8863L8.71011 5.96328L9.45727 7.8863C9.55251 8.13144 9.74638 8.32541 9.99162 8.42065L11.9146 9.16772L9.99162 9.91488C9.74647 10.0101 9.55251 10.204 9.45727 10.4492L8.71011 12.3723L7.96295 10.4492C7.8677 10.2041 7.67383 10.0101 7.42859 9.91488L5.50566 9.16772L7.42859 8.42065Z" fill="#AAA3FF"/>
<path d="M32.5126 21.0606L32.496 21.0598C31.9791 21.0317 31.5827 20.5899 31.6108 20.0728C31.7491 17.5252 33.2853 14.14 35.9535 12.5996C36.4018 12.3406 36.9752 12.4942 37.2341 12.9427C37.493 13.3911 37.3394 13.9644 36.891 14.2232C34.8975 15.3742 33.5928 18.153 33.483 20.1746C33.4558 20.6742 33.0421 21.0612 32.5477 21.0612C32.536 21.0612 32.5243 21.061 32.5126 21.0606Z" fill="#AAA3FF"/>
<path fill-rule="evenodd" clip-rule="evenodd" d="M37.0033 10.7582L38.9459 11.513L39.7001 13.4541C39.9614 14.1299 40.6085 14.545 41.2933 14.545C41.4974 14.545 41.705 14.508 41.9066 14.4301C42.3536 14.2572 42.7093 13.9016 42.8819 13.4556L43.6366 11.513L45.5778 10.7588C46.455 10.4196 46.8929 9.43005 46.5538 8.55249C46.3809 8.10541 46.0252 7.74973 45.5793 7.57715L43.6366 6.82239L42.8825 4.88128C42.5435 4.0039 41.554 3.5662 40.6763 3.9051C40.2295 4.07778 39.8741 4.43298 39.7009 4.87968L38.9461 6.8223L37.005 7.5764C36.1276 7.91548 35.6897 8.90516 36.0288 9.78253C36.2016 10.23 36.5573 10.5857 37.0033 10.7582ZM40.0098 8.42058C40.2549 8.32534 40.4489 8.13147 40.5441 7.88623L41.2913 5.96321L42.0384 7.88623C42.1336 8.13138 42.3275 8.32534 42.5727 8.42058L44.4957 9.16765L42.5727 9.91481C42.3276 10.0101 42.1336 10.2039 42.0384 10.4492L41.2913 12.3722L40.5441 10.4492C40.4489 10.204 40.255 10.0101 40.0098 9.91481L38.0868 9.16765L40.0098 8.42058Z" fill="#AAA3FF"/>
<path fill-rule="evenodd" clip-rule="evenodd" d="M20.3949 11.027L20.667 8.95275L19.1839 7.41456C18.8364 7.05335 18.6509 6.57956 18.6605 6.07942C18.6702 5.57928 18.8741 5.11299 19.2345 4.76631C19.5111 4.50026 19.8565 4.32786 20.2346 4.26711L22.3433 3.87525L23.3471 1.99085C23.8329 1.07983 24.9687 0.73437 25.8791 1.21988C26.2029 1.39256 26.4667 1.65402 26.642 1.97595L27.6864 3.89728L29.789 4.26974C30.2798 4.35542 30.71 4.62841 30.9978 5.03808C31.2856 5.44776 31.3967 5.94489 31.3107 6.43809C31.242 6.83211 31.0545 7.18563 30.7678 7.46256L29.3178 8.99194L29.6135 11.1078C29.755 12.1321 29.038 13.0794 28.0151 13.2208C27.6492 13.2715 27.2814 13.215 26.9517 13.0576L24.9773 12.117L23.0588 13.0508C22.7955 13.179 22.5163 13.2398 22.2414 13.2398C21.5463 13.2398 20.8774 12.8519 20.5533 12.1862C20.3763 11.8229 20.3218 11.4229 20.3949 11.027ZM23.1297 5.636L20.564 6.11279C20.5534 6.11476 20.5429 6.11654 20.5324 6.11823L22.3302 7.97638C22.5282 8.18178 22.622 8.46611 22.5848 8.74895L22.2504 11.2991C22.2474 11.3217 22.2436 11.3441 22.239 11.3664L24.5627 10.2336C24.8193 10.1086 25.1186 10.1074 25.3762 10.2301L27.759 11.3652L27.3985 8.80426C27.3591 8.5217 27.4504 8.23653 27.6467 8.02954L29.4237 6.15507C29.4369 6.1412 29.4505 6.1277 29.4644 6.11467L26.915 5.66469C26.634 5.615 26.391 5.43998 26.2548 5.18939L24.9969 2.87535L23.7858 5.15508C23.6517 5.40688 23.4102 5.58388 23.1297 5.636Z" stroke="#AAA3FF" stroke-width="0.6" mask="url(#path-1-outside-1)"/>
<path d="M20.3792 31.0658C20.3792 31.5836 19.9595 32.0033 19.4417 32.0033C18.9239 32.0033 18.5039 31.5836 18.5039 31.0658C18.5039 30.548 18.9233 30.1283 19.441 30.1283C19.9588 30.1283 20.3792 30.548 20.3792 31.0658Z" stroke="#AAA3FF" stroke-width="0.6" mask="url(#path-1-outside-1)"/>
<path fill-rule="evenodd" clip-rule="evenodd" d="M47.6862 18.3744L48.6237 19.9982C48.9982 20.6469 49.0972 21.4047 48.9026 22.1318C48.7078 22.8588 48.2432 23.4654 47.5945 23.84L38.1246 29.3074V41.3105C38.1246 42.8613 36.863 44.1229 35.3122 44.1229H14.6879C13.1371 44.1229 11.8755 42.8613 11.8755 41.3105V29.3074L2.4056 23.8399C1.06258 23.0646 0.600881 21.3412 1.37626 19.9982L2.31363 18.3744C2.43794 18.1591 2.64268 18.0021 2.88286 17.9376C3.12313 17.8733 3.37887 17.907 3.59421 18.0313L13.064 23.4987H36.9358L46.4056 18.0313C46.6208 17.907 46.8767 17.8732 47.117 17.9376C47.3571 18.002 47.5619 18.1591 47.6862 18.3744ZM36.2495 30.5841L24.5856 42.248H29.4337L36.2495 35.4322V30.5841ZM21.9339 42.248L36.2495 27.9324V25.3736H33.9602L17.0858 42.248H21.9339ZM13.7503 27.9323L16.309 25.3736H13.7503V27.9323ZM2.90845 21.6464C2.97361 21.8897 3.12791 22.092 3.34297 22.2162L11.8754 27.1424V24.9775L3.46868 20.1238L2.99995 20.9357C2.87573 21.1507 2.8433 21.4032 2.90845 21.6464ZM17.1226 34.7114L13.7503 38.0837V41.3105C13.7503 41.7497 14.0543 42.1183 14.4626 42.2195L31.3084 25.3736H26.4603L23.0884 28.7455C22.9054 28.9286 22.6654 29.0201 22.4255 29.0201C22.1856 29.0201 21.9457 28.9286 21.7627 28.7455C21.3966 28.3793 21.3966 27.7857 21.7627 27.4196L23.8088 25.3735H18.9608L13.7503 30.5839V35.432L15.7967 33.3856C16.1629 33.0195 16.7565 33.0194 17.1226 33.3856C17.4887 33.7518 17.4887 34.3454 17.1226 34.7114ZM32.0853 42.248H35.312C35.8289 42.248 36.2495 41.8274 36.2495 41.3105V38.0838L32.0853 42.248ZM46.6569 22.2162C46.8719 22.092 47.0262 21.8897 47.0914 21.6464C47.1565 21.4032 47.1241 21.1507 46.9999 20.9358L46.5311 20.1238L38.1244 24.9775V27.1424L46.6569 22.2162Z" stroke="#AAA3FF" stroke-width="0.6" mask="url(#path-1-outside-1)"/>
<path d="M24.1133 15.7784V20.1237C24.1133 20.6415 24.533 21.0612 25.0507 21.0612C25.5685 21.0612 25.9882 20.6415 25.9882 20.1237V15.7784C25.9882 15.2606 25.5685 14.8409 25.0507 14.8409C24.533 14.8409 24.1133 15.2606 24.1133 15.7784Z" stroke="#AAA3FF" stroke-width="0.6" mask="url(#path-1-outside-1)"/>
<path d="M13.1056 14.2233C12.6572 13.9645 12.5036 13.3911 12.7625 12.9428C13.0214 12.4945 13.5949 12.3407 14.0431 12.5996C16.7113 14.1401 18.2474 17.5253 18.3858 20.0729C18.4138 20.5899 18.0176 21.0319 17.5005 21.0599C17.4833 21.0608 17.466 21.0613 17.4489 21.0613C16.9544 21.0613 16.5408 20.6743 16.5136 20.1746C16.4038 18.153 15.099 15.3743 13.1056 14.2233Z" stroke="#AAA3FF" stroke-width="0.6" mask="url(#path-1-outside-1)"/>
<path fill-rule="evenodd" clip-rule="evenodd" d="M4.42214 10.7583L6.36476 11.5131L7.11904 13.4545C7.2921 13.9016 7.64777 14.2572 8.09504 14.4303C8.29668 14.5082 8.50405 14.5451 8.70832 14.5451C9.39277 14.5451 10.0399 14.1303 10.3006 13.4557L11.0554 11.5131L12.9968 10.7588C13.444 10.5857 13.7996 10.23 13.9725 9.78288C14.1368 9.35784 14.1257 8.89435 13.9413 8.47765C13.757 8.06095 13.4214 7.74099 12.998 7.57731L11.0554 6.82256L10.3009 4.88088C10.1278 4.43371 9.77216 4.07822 9.32499 3.90535C8.44771 3.56618 7.45793 4.00416 7.11951 4.87994L6.36476 6.82256L4.42345 7.57684C3.97619 7.7499 3.62051 8.10557 3.44764 8.55284C3.2834 8.97779 3.29446 9.44136 3.47886 9.85797C3.66307 10.2747 3.99869 10.5946 4.42214 10.7583ZM7.42859 8.42065C7.67374 8.32541 7.8677 8.13154 7.96295 7.8863L8.71011 5.96328L9.45727 7.8863C9.55251 8.13144 9.74638 8.32541 9.99162 8.42065L11.9146 9.16772L9.99162 9.91488C9.74647 10.0101 9.55251 10.204 9.45727 10.4492L8.71011 12.3723L7.96295 10.4492C7.8677 10.2041 7.67383 10.0101 7.42859 9.91488L5.50566 9.16772L7.42859 8.42065Z" stroke="#AAA3FF" stroke-width="0.6" mask="url(#path-1-outside-1)"/>
<path d="M32.5126 21.0606L32.496 21.0598C31.9791 21.0317 31.5827 20.5899 31.6108 20.0728C31.7491 17.5252 33.2853 14.14 35.9535 12.5996C36.4018 12.3406 36.9752 12.4942 37.2341 12.9427C37.493 13.3911 37.3394 13.9644 36.891 14.2232C34.8975 15.3742 33.5928 18.153 33.483 20.1746C33.4558 20.6742 33.0421 21.0612 32.5477 21.0612C32.536 21.0612 32.5243 21.061 32.5126 21.0606Z" stroke="#AAA3FF" stroke-width="0.6" mask="url(#path-1-outside-1)"/>
<path fill-rule="evenodd" clip-rule="evenodd" d="M37.0033 10.7582L38.9459 11.513L39.7001 13.4541C39.9614 14.1299 40.6085 14.545 41.2933 14.545C41.4974 14.545 41.705 14.508 41.9066 14.4301C42.3536 14.2572 42.7093 13.9016 42.8819 13.4556L43.6366 11.513L45.5778 10.7588C46.455 10.4196 46.8929 9.43005 46.5538 8.55249C46.3809 8.10541 46.0252 7.74973 45.5793 7.57715L43.6366 6.82239L42.8825 4.88128C42.5435 4.0039 41.554 3.5662 40.6763 3.9051C40.2295 4.07778 39.8741 4.43298 39.7009 4.87968L38.9461 6.8223L37.005 7.5764C36.1276 7.91548 35.6897 8.90516 36.0288 9.78253C36.2016 10.23 36.5573 10.5857 37.0033 10.7582ZM40.0098 8.42058C40.2549 8.32534 40.4489 8.13147 40.5441 7.88623L41.2913 5.96321L42.0384 7.88623C42.1336 8.13138 42.3275 8.32534 42.5727 8.42058L44.4957 9.16765L42.5727 9.91481C42.3276 10.0101 42.1336 10.2039 42.0384 10.4492L41.2913 12.3722L40.5441 10.4492C40.4489 10.204 40.255 10.0101 40.0098 9.91481L38.0868 9.16765L40.0098 8.42058Z" stroke="#AAA3FF" stroke-width="0.6" mask="url(#path-1-outside-1)"/>
</svg>
