<svg width="48" height="48" viewBox="0 0 48 48" fill="none" xmlns="http://www.w3.org/2000/svg">
<path fill-rule="evenodd" clip-rule="evenodd" d="M1.86473 0.909277L1.92005 0.980374L9.92 12.1549C10.1783 12.5157 10.2027 13.0005 9.98977 13.3854L9.94052 13.4662L2.90191 24L9.94052 34.5337C10.1805 34.8928 10.1965 35.3629 9.98851 35.7368L9.94052 35.8154L2.47389 46.9899C2.13607 47.4955 1.47097 47.6185 0.988364 47.2646C0.529884 46.9283 0.401034 46.2827 0.67894 45.7855L0.726211 45.7083L7.76428 35.1745L0.726211 24.6408C0.486259 24.2817 0.470263 23.8116 0.678221 23.4377L0.726211 23.3592L7.74935 12.8483L0.213395 2.32132C-0.122392 1.85228 -0.0529821 1.1967 0.358862 0.814835L0.426727 0.756882C0.874443 0.405104 1.50023 0.47782 1.86473 0.909277ZM45.5038 0.909277C45.8875 0.47782 46.5462 0.405104 47.0175 0.756882L47.0889 0.814835C47.5224 1.1967 47.5955 1.85228 47.242 2.32132L39.3095 12.8483L46.7022 23.3592L46.7528 23.4377C46.9717 23.8116 46.9548 24.2817 46.7022 24.6408L39.2937 35.1745L46.7022 45.7083L46.752 45.7855C47.0445 46.2827 46.9089 46.9283 46.4263 47.2646C45.9183 47.6185 45.2182 47.4955 44.8626 46.9899L37.003 35.8154L36.9524 35.7368C36.7335 35.3629 36.7504 34.8928 37.003 34.5337L44.412 24L37.003 13.4662L36.9511 13.3854C36.727 13.0005 36.7527 12.5157 37.0246 12.1549L45.4456 0.980374L45.5038 0.909277ZM23.4667 6.39999C27.8849 6.39999 31.4667 9.98171 31.4667 14.4C31.4667 18.8183 27.8849 22.4 23.4667 22.4C19.0484 22.4 15.4667 18.8183 15.4667 14.4C15.4667 9.98171 19.0484 6.39999 23.4667 6.39999ZM23.4667 8.53333C20.2266 8.53333 17.6 11.1599 17.6 14.4C17.6 17.6401 20.2266 20.2667 23.4667 20.2667C26.7067 20.2667 29.3333 17.6401 29.3333 14.4C29.3333 11.1599 26.7067 8.53333 23.4667 8.53333ZM22.5101 10.1946C22.9014 9.40179 24.0319 9.40179 24.4232 10.1946L25.272 11.9147L27.1707 12.1907C28.0182 12.3139 28.3726 13.3268 27.8183 13.951L27.7618 14.0102L26.3877 15.3488L26.7124 17.24C26.8573 18.085 26.0017 18.7354 25.2362 18.3989L25.1647 18.3645L23.4667 17.4715L21.7686 18.3645C21.0098 18.7634 20.1268 18.1507 20.2103 17.3186L20.221 17.24L20.5451 15.3488L19.1715 14.0102C18.5582 13.4123 18.8669 12.3846 19.6822 12.2054L19.7627 12.1907L21.6608 11.9147L22.5101 10.1946ZM23.4667 13.0768L23.326 13.3619C23.1706 13.6767 22.8703 13.8949 22.5229 13.9454L22.208 13.9909L22.4359 14.213C22.6664 14.4376 22.782 14.753 22.7539 15.0706L22.7427 15.1571L22.6885 15.4699L22.9703 15.3225C23.2528 15.174 23.5853 15.1605 23.8769 15.282L23.963 15.3225L24.2443 15.4699L24.1907 15.1571C24.1363 14.84 24.2281 14.5168 24.4374 14.2764L24.4974 14.213L24.7248 13.9909L24.4105 13.9454C24.092 13.8991 23.8131 13.7119 23.6492 13.4385L23.6073 13.3619L23.4667 13.0768Z" fill="#28F569"/>
<path fill-rule="evenodd" clip-rule="evenodd" d="M12.7992 44.7333C12.4678 44.7333 12.1992 45.0019 12.1992 45.3333C12.1992 45.6646 12.4678 45.9333 12.7992 45.9333C13.1306 45.9333 13.3992 45.6646 13.3992 45.3333C13.3992 45.0019 13.1306 44.7333 12.7992 44.7333ZM10.1992 45.3333C10.1992 43.8973 11.3633 42.7333 12.7992 42.7333C14.2352 42.7333 15.3992 43.8973 15.3992 45.3333C15.3992 46.7692 14.2352 47.9333 12.7992 47.9333C11.3633 47.9333 10.1992 46.7692 10.1992 45.3333Z" fill="#28F569"/>
<path fill-rule="evenodd" clip-rule="evenodd" d="M23.4672 44.7333C23.1358 44.7333 22.8672 45.0019 22.8672 45.3333C22.8672 45.6646 23.1358 45.9333 23.4672 45.9333C23.7986 45.9333 24.0672 45.6646 24.0672 45.3333C24.0672 45.0019 23.7986 44.7333 23.4672 44.7333ZM20.8672 45.3333C20.8672 43.8973 22.0312 42.7333 23.4672 42.7333C24.9031 42.7333 26.0672 43.8973 26.0672 45.3333C26.0672 46.7692 24.9031 47.9333 23.4672 47.9333C22.0312 47.9333 20.8672 46.7692 20.8672 45.3333Z" fill="#28F569"/>
<path fill-rule="evenodd" clip-rule="evenodd" d="M34.1352 44.7333C33.8038 44.7333 33.5352 45.0019 33.5352 45.3333C33.5352 45.6646 33.8038 45.9333 34.1352 45.9333C34.4665 45.9333 34.7352 45.6646 34.7352 45.3333C34.7352 45.0019 34.4665 44.7333 34.1352 44.7333ZM31.5352 45.3333C31.5352 43.8973 32.6992 42.7333 34.1352 42.7333C35.5711 42.7333 36.7352 43.8973 36.7352 45.3333C36.7352 46.7692 35.5711 47.9333 34.1352 47.9333C32.6992 47.9333 31.5352 46.7692 31.5352 45.3333Z" fill="#28F569"/>
<path fill-rule="evenodd" clip-rule="evenodd" d="M18.1352 35.1333C17.8038 35.1333 17.5352 35.4019 17.5352 35.7333C17.5352 36.0647 17.8038 36.3333 18.1352 36.3333C18.4665 36.3333 18.7352 36.0647 18.7352 35.7333C18.7352 35.4019 18.4665 35.1333 18.1352 35.1333ZM15.5352 35.7333C15.5352 34.2974 16.6992 33.1333 18.1352 33.1333C19.5711 33.1333 20.7352 34.2974 20.7352 35.7333C20.7352 37.1692 19.5711 38.3333 18.1352 38.3333C16.6992 38.3333 15.5352 37.1692 15.5352 35.7333Z" fill="#28F569"/>
<path fill-rule="evenodd" clip-rule="evenodd" d="M28.7992 35.1333C28.4678 35.1333 28.1992 35.4019 28.1992 35.7333C28.1992 36.0647 28.4678 36.3333 28.7992 36.3333C29.1306 36.3333 29.3992 36.0647 29.3992 35.7333C29.3992 35.4019 29.1306 35.1333 28.7992 35.1333ZM26.1992 35.7333C26.1992 34.2974 27.3633 33.1333 28.7992 33.1333C30.2352 33.1333 31.3992 34.2974 31.3992 35.7333C31.3992 37.1692 30.2352 38.3333 28.7992 38.3333C27.3633 38.3333 26.1992 37.1692 26.1992 35.7333Z" fill="#28F569"/>
<path fill-rule="evenodd" clip-rule="evenodd" d="M12.7992 2.06665C12.4678 2.06665 12.1992 2.33528 12.1992 2.66665C12.1992 2.99802 12.4678 3.26665 12.7992 3.26665C13.1306 3.26665 13.3992 2.99802 13.3992 2.66665C13.3992 2.33528 13.1306 2.06665 12.7992 2.06665ZM10.1992 2.66665C10.1992 1.23071 11.3633 0.0666504 12.7992 0.0666504C14.2352 0.0666504 15.3992 1.23071 15.3992 2.66665C15.3992 4.10259 14.2352 5.26665 12.7992 5.26665C11.3633 5.26665 10.1992 4.10259 10.1992 2.66665Z" fill="#28F569"/>
<path fill-rule="evenodd" clip-rule="evenodd" d="M34.1352 2.06665C33.8038 2.06665 33.5352 2.33528 33.5352 2.66665C33.5352 2.99802 33.8038 3.26665 34.1352 3.26665C34.4665 3.26665 34.7352 2.99802 34.7352 2.66665C34.7352 2.33528 34.4665 2.06665 34.1352 2.06665ZM31.5352 2.66665C31.5352 1.23071 32.6992 0.0666504 34.1352 0.0666504C35.5711 0.0666504 36.7352 1.23071 36.7352 2.66665C36.7352 4.10259 35.5711 5.26665 34.1352 5.26665C32.6992 5.26665 31.5352 4.10259 31.5352 2.66665Z" fill="#28F569"/>
<path fill-rule="evenodd" clip-rule="evenodd" d="M23.4672 2.06665C23.1358 2.06665 22.8672 2.33528 22.8672 2.66665C22.8672 2.99802 23.1358 3.26665 23.4672 3.26665C23.7986 3.26665 24.0672 2.99802 24.0672 2.66665C24.0672 2.33528 23.7986 2.06665 23.4672 2.06665ZM20.8672 2.66665C20.8672 1.23071 22.0312 0.0666504 23.4672 0.0666504C24.9031 0.0666504 26.0672 1.23071 26.0672 2.66665C26.0672 4.10259 24.9031 5.26665 23.4672 5.26665C22.0312 5.26665 20.8672 4.10259 20.8672 2.66665Z" fill="#28F569"/>
<path fill-rule="evenodd" clip-rule="evenodd" d="M12.7992 25.5333C12.4678 25.5333 12.1992 25.802 12.1992 26.1333C12.1992 26.4647 12.4678 26.7333 12.7992 26.7333C13.1306 26.7333 13.3992 26.4647 13.3992 26.1333C13.3992 25.802 13.1306 25.5333 12.7992 25.5333ZM10.1992 26.1333C10.1992 24.6974 11.3633 23.5333 12.7992 23.5333C14.2352 23.5333 15.3992 24.6974 15.3992 26.1333C15.3992 27.5693 14.2352 28.7333 12.7992 28.7333C11.3633 28.7333 10.1992 27.5693 10.1992 26.1333Z" fill="#28F569"/>
<path fill-rule="evenodd" clip-rule="evenodd" d="M23.4672 25.5333C23.1358 25.5333 22.8672 25.802 22.8672 26.1333C22.8672 26.4647 23.1358 26.7333 23.4672 26.7333C23.7986 26.7333 24.0672 26.4647 24.0672 26.1333C24.0672 25.802 23.7986 25.5333 23.4672 25.5333ZM20.8672 26.1333C20.8672 24.6974 22.0312 23.5333 23.4672 23.5333C24.9031 23.5333 26.0672 24.6974 26.0672 26.1333C26.0672 27.5693 24.9031 28.7333 23.4672 28.7333C22.0312 28.7333 20.8672 27.5693 20.8672 26.1333Z" fill="#28F569"/>
<path fill-rule="evenodd" clip-rule="evenodd" d="M34.1352 25.5333C33.8038 25.5333 33.5352 25.802 33.5352 26.1333C33.5352 26.4647 33.8038 26.7333 34.1352 26.7333C34.4665 26.7333 34.7352 26.4647 34.7352 26.1333C34.7352 25.802 34.4665 25.5333 34.1352 25.5333ZM31.5352 26.1333C31.5352 24.6974 32.6992 23.5333 34.1352 23.5333C35.5711 23.5333 36.7352 24.6974 36.7352 26.1333C36.7352 27.5693 35.5711 28.7333 34.1352 28.7333C32.6992 28.7333 31.5352 27.5693 31.5352 26.1333Z" fill="#28F569"/>
</svg>
