<svg width="48" height="35" viewBox="0 0 48 35" fill="none" xmlns="http://www.w3.org/2000/svg">
<g clip-path="url(#clip0)">
<path fill-rule="evenodd" clip-rule="evenodd" d="M47 6.0614H27.0009C26.4486 6.0614 26 6.50943 26 7.0619V33.0605C26 33.6138 26.4486 34.0625 27.0009 34.0625H47C47.5525 34.0625 48.0001 33.6139 48.0001 33.0605V7.0619C48.0001 6.50943 47.5525 6.0614 47 6.0614ZM31.0002 10.8646L31.798 12.0613L31.0002 13.2585L30.2014 12.0613L31.0002 10.8646ZM28.0001 8.06137H31C30.6655 8.06137 30.3538 8.22871 30.1673 8.50668L28.1682 11.5068C28.057 11.674 28.001 11.8657 28.0001 12.0582V8.06137ZM45.9991 28.0624V32.0614H42.9991H28.0001V12.0651C28.001 12.2577 28.057 12.4493 28.1682 12.6166L30.1673 15.6166C30.3538 15.8947 30.6655 16.0619 31.0001 16.0619C31.3337 16.0619 31.6471 15.8947 31.8319 15.6166L33.8327 12.6166C34.0552 12.2802 34.0552 11.8432 33.8327 11.5068L31.8319 8.50668C31.6471 8.22871 31.3338 8.06137 31.0002 8.06137H45.9991V28.0624Z" fill="#399FFF"/>
<path fill-rule="evenodd" clip-rule="evenodd" d="M20.9995 0.0614014H0.998625C0.446719 0.0614014 0 0.509901 0 1.0619V4.0619V7.0619V27.0605V30.0605V33.0605C0 33.6138 0.446719 34.0625 0.998625 34.0625H20.9996C21.552 34.0625 21.9987 33.6139 21.9987 33.0605V30.0605V27.0605V7.0619V4.0619V1.0619C21.9987 0.509901 21.552 0.0614014 20.9995 0.0614014ZM8.1705 9.81871L10.9991 6.99065L13.8278 9.81871L10.9991 12.6473L8.1705 9.81871ZM13.8277 18.3039L10.999 21.1322L8.17041 18.3039L10.999 15.4759L13.8277 18.3039ZM9.58406 14.0614L6.75553 16.89L3.92831 14.0615L6.75553 11.2328L9.58406 14.0614ZM9.58406 22.5457L6.75553 25.3757L3.92831 22.5457L6.75553 19.7184L9.58406 22.5457ZM10.9991 23.9603L13.0998 26.0615H8.89837L10.9991 23.9603ZM12.4127 22.5457L15.2413 19.7184L18.0699 22.5457L15.2413 25.3757L12.4127 22.5457ZM12.4127 14.0614L15.2413 11.2327L18.0699 14.0614L15.2413 16.8899L12.4127 14.0614ZM12.4127 5.57653L15.2413 2.748L18.0699 5.57653L15.2413 8.40515L12.4127 5.57653ZM13.0998 2.06184L10.9991 4.16203L8.89837 2.06184H13.0998ZM9.58406 5.57653L6.75553 8.40515L3.92831 5.57653L6.75553 2.748L9.58406 5.57653ZM1.9995 2.06184H4.61391L2.51325 4.16203L1.9995 3.64734V2.06184ZM1.9995 7.50496L2.51325 6.99075L5.34178 9.81881L2.51325 12.6474L1.9995 12.1332V7.50496ZM1.9995 15.9896L2.51325 15.4759L5.34178 18.3039L2.51325 21.1322L1.9995 20.6184V15.9896ZM1.9995 24.476L2.51325 23.9603L4.61391 26.0615H1.9995V24.476ZM1.9995 28.0624H19.999V29.0614H1.9995V28.0624ZM1.9995 32.0614V31.0624H19.999V32.0614H1.9995ZM19.9991 26.0614H17.3828L19.4835 23.9602L19.9991 24.4759V26.0614ZM19.9991 20.6185L19.4835 21.1323L16.655 18.304L19.4835 15.476L19.9991 15.9907V20.6185ZM19.9991 12.1322L19.4835 12.6473L16.655 9.81871L19.4835 6.99065L19.9991 7.50581V12.1322ZM19.9991 3.64734L19.4835 4.16203L17.3828 2.06184H19.9991V3.64734Z" fill="#399FFF"/>
<path fill-rule="evenodd" clip-rule="evenodd" d="M45.8328 27.5055L43.8318 24.5054C43.647 24.2268 43.3336 24.0604 42.999 24.0604C42.6654 24.0604 42.3538 24.2268 42.1672 24.5054L40.1683 27.5054C39.9439 27.8427 39.9439 28.2792 40.1683 28.6155L42.1672 31.6155C42.3538 31.8941 42.6654 32.0614 42.999 32.0614C43.3335 32.0614 43.647 31.8941 43.8318 31.6155L45.8328 28.6155C45.944 28.4493 45.999 28.2554 45.999 28.0624C45.999 27.8683 45.9439 27.6753 45.8328 27.5055ZM42.999 29.2572L42.2012 28.0624L42.999 26.8638L43.7978 28.0624L42.999 29.2572Z" fill="#399FFF"/>
</g>
<defs>
<clipPath id="clip0">
<rect width="48" height="34.5" fill="white"/>
</clipPath>
</defs>
</svg>
