<svg xmlns="http://www.w3.org/2000/svg" viewBox="0 0 150 150"><defs><style>.cls-1{fill:#150c37;}.cls-2{fill:#2c2834;}.cls-3{fill:#2a2530;}.cls-4{fill:#fdfdfd;}.cls-5{fill:#fefefe;}.cls-6{fill:#5487d8;}.cls-7{fill:#3ac0f2;}.cls-8{fill:#5486d8;}.cls-9{fill:#28b7ec;}.cls-10{fill:#4370b8;}.cls-11{fill:#bb1616;}.cls-12{fill:#4ac5f5;}.cls-13{fill:#40c2f3;}.cls-14{fill:#fbb801;}.cls-15{fill:#e7e6e7;}.cls-16{fill:#fc9a01;}.cls-17{fill:#f0f0f1;}.cls-18{fill:#fda801;}.cls-19{fill:#49c3f4;}.cls-20{fill:#aa0608;}.cls-21{fill:#fb8802;}.cls-22{fill:#f0f0f0;}.cls-23{fill:#f87904;}.cls-24{fill:#eeeeef;}.cls-25{fill:#f2f2f2;}.cls-26{fill:#fbfbfb;}.cls-27{fill:#f4f4f4;}.cls-28{fill:#e4e3e4;}.cls-29{fill:#f6f6f6;}.cls-30{fill:#e8e7e8;}.cls-31{fill:#eaeaeb;}.cls-32{fill:#e4e4e5;}.cls-33{fill:#9a090c;}.cls-34{fill:#ebebec;}.cls-35{fill:#8d1013;}.cls-36{fill:#ebeaeb;}.cls-37{fill:#cd2828;}.cls-38{fill:#dedddf;}.cls-39{fill:#e0dfe1;}.cls-40{fill:#44bdec;}.cls-41{fill:#cac9cb;}.cls-42{fill:#e7e7e8;}.cls-43{fill:#dfdee0;}.cls-44{fill:#2f2b37;}.cls-45{fill:#2d2935;}.cls-46{fill:#322e39;}.cls-47{fill:#2dbaee;}.cls-48{fill:#34bdf0;}.cls-49{fill:#31bcf0;}.cls-50{fill:#37bff1;}.cls-51{fill:#40c3f4;}.cls-52{fill:#44a9e6;}.cls-53{fill:#2ab9ee;}.cls-54{fill:#fc9101;}.cls-55{fill:#d73535;}.cls-56{fill:#e24c4c;}.cls-57{fill:#de4444;}.cls-58{fill:#51cbf9;}.cls-59{fill:#2d2834;}.cls-60{fill:#55cffd;}.cls-61{fill:#50caf8;}.cls-62{fill:#2e2a36;}.cls-63{fill:#f3f3f3;}.cls-64{fill:#54515a;}.cls-65{fill:#dd4f4f;}.cls-66{fill:#b7cdef;}.cls-67{fill:#4b81d5;}</style></defs><g id="Layer_2" data-name="Layer 2"><g id="Layer_1-2" data-name="Layer 1"><rect class="cls-1" width="150" height="150"/><path class="cls-2" d="M69.71.57H80c3.27.3,6.55.37,9.8,1a69.87,69.87,0,0,1,23.16,8.8,88.9,88.9,0,0,1,12.77,9.33,63.5,63.5,0,0,1,10.57,12A73.31,73.31,0,0,1,147,53.81a52,52,0,0,1,2.25,14.46c0,.48-.17,1,.15,1.44V79c-.34,2.61-.08,5.25-.44,7.86a66.76,66.76,0,0,1-3.34,13.76,75.72,75.72,0,0,1-12.44,21.88,72.59,72.59,0,0,1-16.84,15.21A74.26,74.26,0,0,1,95,147.4a54,54,0,0,1-13,1.87c-.37,0-.77-.13-1.11.16H69.71c-2.38-.32-4.79-.19-7.17-.58a66.12,66.12,0,0,1-20.38-6.36,85.45,85.45,0,0,1-10.37-6.11A73.87,73.87,0,0,1,2.47,94.13,47.94,47.94,0,0,1,.73,81.57c0-.43.15-.89-.16-1.28V69.71c.36-2.93.42-5.87.88-8.81A65.86,65.86,0,0,1,7,43.32,73.77,73.77,0,0,1,22.63,21.24a77.68,77.68,0,0,1,13.6-10.41A70.38,70.38,0,0,1,56.85,2.24,51.62,51.62,0,0,1,68.6.73C69,.73,69.37.85,69.71.57Z"/><path class="cls-3" d="M69.71.57c-.79.61-1.72.18-2.56.35C61.9,2,56.55,2.63,51.43,4.38a71.48,71.48,0,0,0-13.07,5.81,80.6,80.6,0,0,0-13.63,10A72.2,72.2,0,0,0,12.31,35c-4.39,7-7.88,14.32-9.49,22.46C2.07,61.19,1.06,64.92.88,68.8a3.27,3.27,0,0,1-.31.91Q.57,35.84.54,2C.53.78.78.53,2,.54Q35.84.6,69.71.57Z"/><path class="cls-3" d="M149.43,69.71c-.73-1.26-.31-2.69-.54-4-1.08-6.28-2.32-12.51-4.8-18.41A80.81,80.81,0,0,0,139,37.14a70.08,70.08,0,0,0-6.65-9.57,57.86,57.86,0,0,0-8.17-8.32,90,90,0,0,0-9-6.87,75.22,75.22,0,0,0-13.6-6.9,57,57,0,0,0-9.76-2.91C88.19,2,84.71.78,81,.9A1.4,1.4,0,0,1,80,.57q34.08,0,68.15,0c1.13,0,1.36.22,1.35,1.35Q149.4,35.81,149.43,69.71Z"/><path class="cls-3" d="M.57,80.29c.56,2.56.8,5.17,1.26,7.74A72.52,72.52,0,0,0,9.94,111.2a68.13,68.13,0,0,0,13.25,17.31c4.9,4.46,10,8.74,15.92,11.83,5.26,2.76,10.64,5.44,16.52,6.55,2.52.47,5,1.17,7.61,1.45,2.07.23,4.1.94,6.25.68.05,0,.14.27.22.41q-33.91,0-67.82,0c-1.13,0-1.36-.22-1.35-1.35Q.6,114.2.57,80.29Z"/><path class="cls-3" d="M81,149.43c1.51-.28,3-.62,4.54-.78a13.33,13.33,0,0,0,3.75-.63,23,23,0,0,1,3.72-.83,50.9,50.9,0,0,0,13.12-4.55c1.88-1,3.94-1.52,5.71-2.78,3.59-2.56,7.56-4.6,10.87-7.56a82.6,82.6,0,0,0,12.91-14A84,84,0,0,0,145,100.62a80.13,80.13,0,0,0,2.48-9.05,45.38,45.38,0,0,0,1.65-11.86,2.4,2.4,0,0,1,.3-.74q0,34.53,0,69.06c0,1.18-.24,1.44-1.43,1.43Q114.49,149.4,81,149.43Z"/><path class="cls-4" d="M12.53,90.56c0-2.37,0-4.73,0-7.1,0-.75.19-1.13,1-1.1,2.14.06,4.29,0,6.43.15a4.93,4.93,0,0,1,2.37,8.84c-.8.55-.79.9-.35,1.65.87,1.53,1.59,3.14,2.43,4.69.57,1,.25,1.22-.84,1.29-1.6.1-2.7-.22-3.24-1.94-.38-1.19-1.21-2.23-1.66-3.4a1.74,1.74,0,0,0-2.2-1.16c-1.18.17-.64,1.11-.68,1.71a27.48,27.48,0,0,0,0,3.63c.09,1.4-.87,1.12-1.65,1.12s-1.69.31-1.63-1.11C12.59,95.41,12.53,93,12.53,90.56Z"/><path class="cls-4" d="M69.74,82.59c-1.54,1.86-2.93,3.64-4.43,5.3a1.57,1.57,0,0,0-.21,2.26c1.54,2.46,2.91,5,4.46,7.51.75,1.19.32,1.25-.79,1.32-1.58.09-2.67-.21-3.35-1.85s-1.72-3.07-2.54-4.62c-.47-.89-.75-.7-1.42-.13-1.6,1.37-1.36,3.14-1.28,4.88,0,1.18-.13,1.76-1.57,1.74s-1.71-.47-1.69-1.8c.08-4.45.09-8.91,0-13.37,0-1.35.53-1.49,1.66-1.5s1.69.27,1.6,1.56a19.64,19.64,0,0,0,.34,5.18,54.14,54.14,0,0,0,3.62-4.57C65.48,82.42,67.22,81.93,69.74,82.59Z"/><path class="cls-4" d="M27.16,90.67c0-.94-.07-1.88,0-2.8a5.79,5.79,0,0,1,6-5.61,5.76,5.76,0,0,1,6.06,5.29,23.07,23.07,0,0,1-.08,6.74,5.67,5.67,0,0,1-5.83,4.79,5.78,5.78,0,0,1-6-4.63A16.49,16.49,0,0,1,27.16,90.67Z"/><path class="cls-4" d="M125.8,90.79a25.13,25.13,0,0,1,0,3.13,5.75,5.75,0,0,1-6,5.16A5.62,5.62,0,0,1,113.89,94a22.23,22.23,0,0,1,.06-7,5.61,5.61,0,0,1,5.55-4.69,5.89,5.89,0,0,1,6.06,4.11A13.4,13.4,0,0,1,125.8,90.79Z"/><path class="cls-4" d="M72.39,90.59c0-2.32,0-4.63,0-6.94,0-.86.12-1.32,1.14-1.3,2.87.05,5.73.07,8.6,0,1.39,0,1.08.84,1.14,1.63s-.08,1.46-1.21,1.41c-1.7-.09-3.42,0-5.12,0-1,0-1.33.3-1.34,1.32,0,2.46-.06,2.46,2.48,2.46a13.69,13.69,0,0,0,2.31,0c1.57-.26,1.85.45,1.77,1.83-.05,1-.35,1.24-1.27,1.19-1.32-.06-2.64,0-4,0-1-.06-1.43.3-1.31,1.31a5.3,5.3,0,0,1,0,1.32c-.14,1,.35,1.32,1.32,1.29,1.76-.06,3.53,0,5.29,0,1.15,0,1.08.66,1,1.39S83.67,99,82.29,99c-3,0-6,0-8.93,0-.84,0-1-.37-1-1.1C72.41,95.44,72.39,93,72.39,90.59Z"/><path class="cls-5" d="M99.72,90.6V83.49c0-.56,0-1.15.79-1.12a50.83,50.83,0,0,1,6.76.16,5,5,0,0,1,4.26,5.1,5.08,5.08,0,0,1-4.19,5,11.29,11.29,0,0,1-3.12.17c-1-.07-1.34.36-1.3,1.34.07,1.26,0,2.53,0,3.8,0,1.58-1.2.86-1.93,1s-1.4,0-1.31-1.05,0-2.43,0-3.64Z"/><path class="cls-6" d="M58.12,46.9a23,23,0,0,1-6.5-3.13c-1.19-.74-1.2-1.61-.07-2.47a42.68,42.68,0,0,1,5.8-3.77c2.26-1.19,4.71-.93,7.11-.8,1.74.09,3.48.43,5.22.66,0,1.18-1.07,1.37-1.69,2a13.93,13.93,0,0,1-1.55,1.2c-.27.25-.57.46-.83.73-.67.71-1.51,1.22-2.2,1.9s-1.39,1.08-2,1.68S60,46,59.37,46.54A1.47,1.47,0,0,1,58.12,46.9Z"/><path class="cls-7" d="M66.09,40.28l3.59-2.9a43.4,43.4,0,0,1,5-3.44l.16.16c.18.77-.41,1.07-.88,1.42a12.68,12.68,0,0,0-2.45,2.42c2,.1,2.62,1.78,3.67,2.91a7.47,7.47,0,0,1,.43,2.24c.19,2.4,1.69,4.08,3.12,5.8C79.76,50.31,81.36,50.67,83,51a7.14,7.14,0,0,1,1.58.38c1.32.83,3.13.28,4.35,1.57.31.32,1-.34,1.42-.63s.88-1,1.48-.18c-1.71,2.19-3.94,3.82-6,5.67a2.3,2.3,0,0,1-2.32,1.76c-1.05-.74-1.27-2-1.88-3a3.13,3.13,0,0,0-1.69-3.1,8.65,8.65,0,0,1-2.46-2.37c-.78-.93-1.44-2.07-3-2.33s-1.84-1.91-2.77-2.89c-1.65-1.75-3.75-3-5.28-4.9A1.29,1.29,0,0,1,66.09,40.28Z"/><path class="cls-8" d="M83.59,59.42l2.24-1.6c0,4.88-.45,9.57-4.46,13.07C80.17,71.94,79,73,77.76,74c-1.38,1.13-2.25.83-2.64-1a33.5,33.5,0,0,1-.83-5.37A9.73,9.73,0,0,0,74,66.42c.26-.87,1.1-1.14,1.72-1.64a5.5,5.5,0,0,0,1-.75c.77-.53,1.49-1.13,2.26-1.65a24.3,24.3,0,0,1,2.6-2C82.24,59.93,82.69,59.2,83.59,59.42Z"/><path class="cls-4" d="M42.2,90.57c0-1-.07-2,0-3a5.44,5.44,0,0,1,4.85-5.22,5.88,5.88,0,0,1,6.56,3.26c.26.56,1,1.52.1,1.8s-2.22.77-3-.46A3.17,3.17,0,0,0,49,85.36a2.61,2.61,0,0,0-3.53,2.2,25.22,25.22,0,0,0,0,6.26A2.35,2.35,0,0,0,47.39,96c1.17.26,2.41.13,2.9-1,.68-1.53,1.85-1.21,3-1.24.82,0,.87.4.71,1.06a5.84,5.84,0,0,1-5.67,4.23,5.73,5.73,0,0,1-5.86-3.91A14.73,14.73,0,0,1,42.2,90.57Z"/><path class="cls-9" d="M76,65.09a3.7,3.7,0,0,1-2,1.33,17.85,17.85,0,0,1-4-2A5.28,5.28,0,0,1,66.53,63a20.85,20.85,0,0,1-6.84-8.9c-.37-.88.25-1.74-.28-2.52a22,22,0,0,1-1.29-4.64l1-.69c.72-.4.77.13,1,.62.74,1.79,1.32,3.69,3.07,4.85.31.21.39.25.49,0s.39-.7.83-.62.6.58.59,1a2.24,2.24,0,0,0,.13,1.28,63.22,63.22,0,0,0,8.91,8.39C75,62.4,76.5,63.33,76,65.09Z"/><path class="cls-4" d="M89.49,92.05c0-1.82,0-3.64,0-5.45,0-.94-.28-1.34-1.22-1.25-.44,0-.89,0-1.32,0-1.49.24-2-.39-1.82-1.83.07-.83.28-1.18,1.14-1.18,3.2,0,6.4.05,9.59,0,1.18,0,1.18.64,1.17,1.48s.07,1.48-1.13,1.55c-3.22.19-3.23.25-3.24,3.49,0,3-.06,5.95,0,8.92,0,1.21-.6,1.24-1.43,1.15s-1.87.48-1.8-1.11C89.55,95.91,89.49,94,89.49,92.05Z"/><path class="cls-4" d="M131.77,92.2c0-1.82-.05-3.63,0-5.44.05-1.08-.29-1.55-1.39-1.41-.38,0-.78,0-1.15,0-1.65.3-2-.55-1.85-2,.06-.77.3-1.06,1.08-1.06,3.24,0,6.49,0,9.73,0,1.09,0,1.11.63,1.07,1.4s.25,1.55-1,1.63c-1.08.07-2.55-.67-3.17.48-.46.86-.13,2.15-.13,3.25,0,2.85-.08,5.72,0,8.57.06,1.44-.76,1.25-1.65,1.28s-1.69.05-1.6-1.32C131.87,95.83,131.77,94,131.77,92.2Z"/><path class="cls-10" d="M59.41,51.54A27.94,27.94,0,0,0,62.5,58,20.84,20.84,0,0,0,70,64.43a9.38,9.38,0,0,1-3.14,1,4.81,4.81,0,0,0-.66-.13,16.08,16.08,0,0,1-2.74-2,22,22,0,0,1-2.75-3c-.57-1-1.33-1.95-2-2.95a2.59,2.59,0,0,1-.58-2.25A2.21,2.21,0,0,1,58.84,53,1.64,1.64,0,0,0,59.41,51.54Z"/><path class="cls-11" d="M62.36,107.74a2.36,2.36,0,0,1,2.93-.71,3.13,3.13,0,0,1,2.09,2.71,5.15,5.15,0,0,1-1.55,4.31c-2.12,2.28-6.39,2.84-8.67,1.13a4.54,4.54,0,0,1-1.8-2.75c.7-.59,1.34.07,2,.12,2.46.17,4.92,0,7.37,0a1.26,1.26,0,0,0,1.35-1c0-.29.13-.56.13-.86a2,2,0,0,0-.32-1.42c-.77-1.14-2-1.13-3.18-1.25A.85.85,0,0,1,62.36,107.74Z"/><path class="cls-12" d="M98.21,41.3a23.23,23.23,0,0,1-3.67,7.24c-1.36,1.6-2.11,1.55-3-.19a4,4,0,0,1,.84-1.93,8.68,8.68,0,0,0,.35-8.88c-.33-.67-.87-1.29-.65-2.13,1-.74,1.39.14,1.76.73a12.25,12.25,0,0,1,1.55,4.64,3.12,3.12,0,0,0,.63,1.95c.7-.46.8-1.77,2-1.58Z"/><path class="cls-13" d="M91.87,48.54c.89,1,1.78.77,2.67,0a11.3,11.3,0,0,1-2.75,3.61c-1,.19-1.61,1.15-2.54,1.53-.46.2-1,.41-1.12,0-.47-1.67-2-.92-3-1.44-.27-.14-.65-.09-.89-.36.33-.74,1-.73,1.65-.79a5.4,5.4,0,0,0,3.26-1.25C90,49.21,90.63,48.22,91.87,48.54Z"/><path class="cls-14" d="M61.11,67.06c-2.35.65-4.76.4-7.14.43-.73,0-.95-.38-.71-1.08s.39-1.35.59-2c.29-.35,0-1,.55-1.2a1.7,1.7,0,0,1,1.26.22c1.67.71,3.19,1.73,4.93,2.31C61.08,65.88,62.08,66.18,61.11,67.06Z"/><path class="cls-15" d="M114.3,108.08a2.94,2.94,0,0,1,2,1.64c.23.61.24,1.28.49,1.89a15.27,15.27,0,0,1-.12,3.17c-.22,1.89-1.07,2.79-2.8,3a3,3,0,0,1-3.56-2.28c-.15-2.06-.41-4.14.33-6.16.27-.91,1.2-.87,1.84-1.25A2.41,2.41,0,0,1,114.3,108.08Z"/><path class="cls-16" d="M66.44,65.06l.46.33a8.67,8.67,0,0,1-3.81,1.37c-.13-.85-.83-1.1-1.49-1.31a31.14,31.14,0,0,1-5.45-2.56c-.5-.29-1.14-.47-1.24-1.19.14-.53.13-1.14.75-1.41,2.56.52,4.71,2,7.06,3.05C64,63.89,65.16,64.58,66.44,65.06Z"/><path class="cls-17" d="M39.64,109.73c.07,1.8,1.17,3.26,1.59,5.41a43.22,43.22,0,0,0,1.66-5.9c.16-.55.08-1.44,1-1.19s.22.93.11,1.39c-.57,2.41-1.19,4.8-1.8,7.2-.12.46-.11,1-.83,1s-.63-.5-.74-.93q-.68-2.61-1.37-5.23a6.9,6.9,0,0,1-.29-1.29,1,1,0,0,1,.22-.48A.35.35,0,0,1,39.64,109.73Z"/><path class="cls-18" d="M55.15,61.76a43.23,43.23,0,0,1,4.25,2.13,25.35,25.35,0,0,1,4.33,2l-.64.86c-.65.15-1.27.54-2,.3.16-.35.15-.68-.29-.76-2.35-.46-4.14-2.11-6.34-2.89C54.2,62.66,54.26,62,55.15,61.76Z"/><path class="cls-19" d="M79.62,31.31a27.15,27.15,0,0,1,15.69-2.39c3.24.48,4.4,2,4.43,5.25a14.67,14.67,0,0,1-1.53,7.13l-.09-.07c-.67-.8-.29-1.63-.1-2.47s.39-1.82.61-2.73c.83-3.44-.38-5.48-3.84-6.15a12.45,12.45,0,0,0-5.23-.09,77.73,77.73,0,0,0-8.76,2,1.11,1.11,0,0,1-1.1-.06.42.42,0,0,1-.12-.29C79.59,31.37,79.6,31.31,79.62,31.31Z"/><path class="cls-20" d="M57.15,115c3,.42,6,1.27,8.68-1a17.43,17.43,0,0,1-4.12,4.44c-1,.89-1.67-.06-2.27-.79a12.79,12.79,0,0,1-2.32-2.33h0c-.1-.09-.13-.17-.09-.25S57.11,115,57.15,115Z"/><path class="cls-21" d="M55.15,61.76a2.11,2.11,0,0,0-.67,1.65l-.63,1a15.7,15.7,0,0,1,2-5.59c.46-.9,1.18-.66,1.81-.33,1.16.59,2.42,1,3.55,1.61l2.65,3c-.61.63-1.23.24-1.79,0-1.55-.8-3.18-1.42-4.73-2.22a1.91,1.91,0,0,0-1.54-.34A2,2,0,0,0,55.15,61.76Z"/><path class="cls-22" d="M84.37,108.37c.88.82,1.79,1.64,1.3,3-.43.42-.83.56-1.08-.16a2.43,2.43,0,0,0-.44-1,2.82,2.82,0,0,0-.8-.66,1.69,1.69,0,0,0-2.22.17,2.27,2.27,0,0,0,0,2c.79.82,1.63.4,2.47.1a1.6,1.6,0,0,1,.72-.11c.73.19.8.54.25,1-1.36.86-.2,1.74,0,2.6.13.18.22.38,0,.56-.35.32-.55-.1-.81-.19a4.89,4.89,0,0,1-.92-1.87,1.84,1.84,0,0,0-2.56-.37l.07-.07c-.7,1.23.06,2.66-.44,3.92-.59,0-.49-.43-.49-.71,0-2.42,0-4.85,0-7.26,0-.87.28-1.2,1.14-1.13A28.1,28.1,0,0,1,84.37,108.37Z"/><path class="cls-23" d="M61.22,60.07a4.71,4.71,0,0,1-3-.71c-.74-.33-1.41-1.14-2.37-.57a7.64,7.64,0,0,1,2.36-3.73Z"/><path class="cls-24" d="M37.25,114.69l0,.34c-.26.75-.36,1.55-.64,2.3-.93.64-1.16-.12-1.32-.72q-.95-3.66-1.8-7.34c-.1-.41-.55-1,.21-1.23s.78.53.91,1.06q.57,2.48,1.2,5c.05.22,0,.63.37.61s.31-.4.44-.62C37.25,113.87,37.11,114.41,37.25,114.69Z"/><path class="cls-25" d="M105.17,113.3c0-.71,0-1.43,0-2.14.13-1.45,0-2.55-1.93-2.15-.38.07-.84,0-.8-.56s.52-.48.89-.48c1.59,0,3.19,0,4.79,0,.37,0,.84,0,.84.53s-.51.57-.85.5c-1.86-.37-2.05.63-2,2.13.1,1.86,0,3.74,0,5.61,0,.36.1.86-.47.88s-.52-.48-.52-.85C105.16,115.62,105.17,114.46,105.17,113.3Z"/><path class="cls-24" d="M47,116.61l4,0c.37,0,.83,0,.87.5s-.46.48-.82.51c-5.1.5-5.1.5-5.1-4.54,0-1.37,0-2.75,0-4.12,0-.65.14-1.06.9-1,1.43,0,2.86,0,4.29,0,.33,0,.69,0,.73.46s-.36.58-.76.59l-4.12.08c0-.08,0-.16-.08-.23,1-.67,2.13-.07,3-.29h-.47c-3,0-3,0-2.79,2.92a34.12,34.12,0,0,1-.06,3.92c0,1.33.31,2,1.73,1.77a7.5,7.5,0,0,1,1.25,0,11.85,11.85,0,0,1-2.57-.13A.29.29,0,0,1,47,116.61Z"/><path class="cls-26" d="M72.37,109.11l-.67.62a8.66,8.66,0,0,0-.06,6,1.43,1.43,0,0,0,1,1,3,3,0,0,0,2,0l.54-.4c.5-.22.49-.87.9-1.12.58-.36.83-.2.54.49a5.37,5.37,0,0,1-1.52,1.73,8.08,8.08,0,0,1-2.9,0,2.25,2.25,0,0,1-1.69-2.14,23.26,23.26,0,0,1,0-4.57A2.33,2.33,0,0,1,73,108.26a.46.46,0,0,1,.15.41C73,109,72.54,108.82,72.37,109.11Z"/><path class="cls-27" d="M99.78,108.41a3.47,3.47,0,0,1,1.39,1.24,3.87,3.87,0,0,1,0,2.31l-.74,1.08c-.88.38-.7-.29-.75-.74.06-1,.45-2-.64-2.66-.81-.46-1.6-.67-2.33.14a2.31,2.31,0,0,0,.21,2.31c.52.57,1.54.27,2,1.18-.5.45-1.12.21-1.66.26s-1.15-.15-1.33.62c0,1.07,0,2.13,0,3.19a.35.35,0,0,1-.52-.14,40.45,40.45,0,0,1,.09-8.8A12.28,12.28,0,0,1,99.78,108.41Z"/><path class="cls-28" d="M84.37,108.37l-1.48,0c-3.76.06-3.21-.52-3.25,3.35,0,1.69,0,3.37,0,5.46.7-1.46-.19-2.81.78-3.8,0,1.15-.09,2.3-.14,3.46,0,.31.06.7-.41.75s-.62-.32-.62-.74V108.8c0-.43.14-.85.61-.82C81.36,108.07,82.93,107.52,84.37,108.37Z"/><path class="cls-29" d="M37.25,114.69l-.61-.65,1.2-4.34c.14-.08.26-.15.27-.35,0-.51.18-1.08.79-.92s.69.73.38,1.3v.34c-.34.35-.92.52-.93,1.14A12.92,12.92,0,0,1,37.25,114.69Z"/><path class="cls-30" d="M90.47,112c.52-1.14,1-2.29,1.55-3.42.19-.42.52-.82,1-.53s.07.68-.08,1c-.77,1.57-1.57,3.12-2.35,4.68l-.19-.11a.93.93,0,0,1-.18-.82C90.31,112.54,90.53,112.32,90.47,112Z"/><path class="cls-31" d="M95.51,117.33h.34c-.84.18-.91.18-.91-.44,0-2.69,0-5.37,0-8.06,0-.41.1-.87.57-.84,1.43.09,2.93-.5,4.28.41H95.51A49.11,49.11,0,0,0,95.51,117.33Z"/><path class="cls-32" d="M73,108.7v-.44c1.92-.44,3.13,0,3.77,1.51.15.34.41.75,0,1a.62.62,0,0,1-.93-.37A3.67,3.67,0,0,0,74.66,109C74.15,108.69,73.46,109.17,73,108.7Z"/><path class="cls-17" d="M90.6,113.73c0,1.08.05,2.17.06,3.25,0,.34-.1.66-.54.65s-.47-.35-.49-.69c-.09-1.29.2-2.6-.22-3.87.74-.44.63.58,1.08.63Z"/><path class="cls-31" d="M100.09,112.28c0,.3-.24.68.3.76-.3,1-1.16.63-1.8.75-.89.17-1.87-.31-2.7.36.37-1.47,1.69-.39,2.45-.93-.76-.49-1.81.26-2.46-.59A4.77,4.77,0,0,1,100.09,112.28Z"/><path class="cls-33" d="M54.8,109a2.84,2.84,0,0,1,2.67-2.21,3,3,0,0,1,3.08,1.91.68.68,0,0,1-.41.19,3.74,3.74,0,0,1-1-.45,2.27,2.27,0,0,0-2.89.23c-.47.27-.55.9-1.06,1.14a.48.48,0,0,1-.42-.14A.7.7,0,0,1,54.8,109Z"/><path class="cls-34" d="M88.55,111.42c-.43-.82-.88-1.63-1.29-2.46-.14-.29-.55-.69.06-.93.43-.17.72.06.9.46.32.75.65,1.49,1,2.23C88.93,110.91,88.9,111.32,88.55,111.42Z"/><path class="cls-35" d="M54.8,109l0,.74c.46.32.43.88.64,1.33a2,2,0,0,1,.11.42,2.1,2.1,0,0,1-.13.86A8.12,8.12,0,0,0,57.15,115l0,.36C55.33,113.63,53.82,111.79,54.8,109Z"/><path class="cls-24" d="M46.91,109.1v.49c0,2.65,0,2.65,2.67,2.68,1.15,0,1.15,0,1.29.79h-.3c-1,0-2,0-3,0-.81,0-1.31-.42-1.2-1.2s-.59-2,.46-2.77Z"/><path class="cls-25" d="M88.55,111.42c.08-.35-.13-1,.64-.7l.74,1.49c.08.33.52.21.63.5s0,.66-.07,1c-1,1-.39-1-1.08-.63Z"/><path class="cls-36" d="M83.82,115.73c.34,0,.72.2.77-.37a4.36,4.36,0,0,1,1.3,2.2C84.24,117.89,84.33,116.48,83.82,115.73Z"/><path class="cls-24" d="M50.87,113.06c-.51.49-1.15.23-1.72.24-2.48.07-2.22-.34-2.24,2.33,0,.32,0,.65.06,1l-.09.07a5.69,5.69,0,0,1-.36-3.59c.21-.26.49-.22.75-.21a23.36,23.36,0,0,1,3.45.1Z"/><path class="cls-37" d="M60.11,108.75l.44,0c1.1.58,1-1,1.81-1l.43.05c.26.71-.39,1.09-.59,1.63a1.72,1.72,0,0,1-.82.86,1.18,1.18,0,0,1-1.18-.34C59.92,109.56,59.76,109.17,60.11,108.75Z"/><path class="cls-38" d="M71.64,115.69a6.3,6.3,0,0,1,.06-6A18.92,18.92,0,0,0,71.64,115.69Z"/><path class="cls-39" d="M110.69,109.3c-.46,2-.2,4.11-.33,6.16C110.05,113.39,109.71,111.31,110.69,109.3Z"/><path class="cls-28" d="M84.53,109.76A1,1,0,0,1,85,111c-.12.61.25.56.65.47a1.26,1.26,0,0,1-1.06,1.34c.09-.34.17-.68-.36-.72A1.76,1.76,0,0,1,84.53,109.76Z"/><path class="cls-40" d="M79.62,31.31l0,.36c0,.06,0,.13-.07.2a2.47,2.47,0,0,1-.84.66,2.12,2.12,0,0,1-.36.21,5.32,5.32,0,0,0-.91.49,1.46,1.46,0,0,1-.41.11,1,1,0,0,1-.61-.18L76.32,33A6.59,6.59,0,0,1,79.62,31.31Z"/><path class="cls-32" d="M39.28,109.73c0-.37,0-.89-.36-1-.75-.2-.5.87-1.08,1,0-.21.09-.42.13-.63.11-.46.12-1,.75-1.07s.74.62.88,1.11a3.13,3.13,0,0,1,0,.62Z"/><path class="cls-35" d="M57.12,115.37a7.93,7.93,0,0,1,2.32,2.33A4.34,4.34,0,0,1,57.12,115.37Z"/><path class="cls-41" d="M116.72,114.78l-.12-3.42a.56.56,0,0,1,.11-.69A8.53,8.53,0,0,1,116.72,114.78Z"/><path class="cls-42" d="M76.65,115.67c-.09-.31-.23-.54-.51-.17s-.42.76-.93.8c.24-.42.45-.86.73-1.26a.53.53,0,0,1,.84-.13C77.06,115.16,77.05,115.47,76.65,115.67Z"/><path class="cls-36" d="M80.34,113.49c1-.68,1.87-.84,2.56.37C82.12,113.27,81.2,113.59,80.34,113.49Z"/><path class="cls-32" d="M38.34,111.21c-.14-.75.13-1.17.93-1.14l0,1.42C39,111.16,38.87,110.59,38.34,111.21Z"/><path class="cls-43" d="M36.63,117.33a3.5,3.5,0,0,1,.64-2.3A3.37,3.37,0,0,1,36.63,117.33Z"/><path class="cls-42" d="M72.23,117.4h2.9A2.94,2.94,0,0,1,72.23,117.4Z"/><path class="cls-38" d="M73,108.7c.57.09,1.2-.12,1.69.34l-2.29.07Z"/><path class="cls-31" d="M101.13,112l0-2.31A1.89,1.89,0,0,1,101.13,112Z"/><path class="cls-40" d="M74.64,33.94a3.07,3.07,0,0,1,1.68-1l0,.06a.83.83,0,0,1-.29.88A1.08,1.08,0,0,1,74.7,34Z"/><path class="cls-42" d="M74.67,116.7a1.51,1.51,0,0,1-2,0Z"/><path class="cls-39" d="M114.3,108.08l-1.77,0A1.91,1.91,0,0,1,114.3,108.08Z"/><path class="cls-17" d="M90.56,112.71a.65.65,0,0,1-.63-.5l.54-.2C90.77,112.21,90.85,112.44,90.56,112.71Z"/><path class="cls-39" d="M116.71,110.67c0,.23-.07.46-.11.69-.36-.5-.21-1.09-.25-1.64C116.78,109.92,116.73,110.3,116.71,110.67Z"/><path class="cls-44" d="M17.67,89.64c-.53-.17-1.61.42-1.79-.38a12.34,12.34,0,0,1,0-3.59c0-.33.52-.32.84-.32.71,0,1.43,0,2.14,0a2.07,2.07,0,0,1,2.25,2.1c.07,1.28-.87,2.11-2.34,2.18C18.45,89.66,18.12,89.64,17.67,89.64Z"/><path class="cls-45" d="M30.31,90.86c.06-1.16.06-2.15.17-3.14a2.53,2.53,0,0,1,2.59-2.47,2.51,2.51,0,0,1,2.79,2.22,18,18,0,0,1,0,6.55,2.4,2.4,0,0,1-2.58,2.07A2.45,2.45,0,0,1,30.54,94,25.06,25.06,0,0,1,30.31,90.86Z"/><path class="cls-45" d="M122.7,90.7c0,1,0,2-.16,3a2.55,2.55,0,0,1-2.65,2.43,2.45,2.45,0,0,1-2.78-2.23,20.57,20.57,0,0,1,0-6.41,2.46,2.46,0,0,1,2.65-2.2,2.67,2.67,0,0,1,2.77,2.32,3.57,3.57,0,0,1,.06.65c0,.83,0,1.65,0,2.48Z"/><path class="cls-46" d="M102.93,87.86c0-2.52,0-2.52,2-2.52,2.3,0,3.33.7,3.33,2.25s-1.08,2.1-3.49,2.33C102.64,90.12,102.85,88.88,102.93,87.86Z"/><path class="cls-47" d="M64.75,53.5c-.75-.62.15-1.49-.37-2.22-.88.43.05,1.23-.48,1.73-.44-.86-1.53-1-2.21-1.87s-1.43-1.29-1.42-2.61c0-.69-1-1.39-1.18-2.32a6.74,6.74,0,0,1,2-1.65c1.32-.13,1.55,1,2,1.74-.09.27.27.08,0,.1s0,0,0-.16c0-.29.09-.61.37-.67s.62.26.67.57c.36,2.2,2,3.12,3.78,4,.2.11.45.21.49.41.31,1.69,2.07,2.23,2.89,3.6.44.73,1.87,1.37,2.94,1.89a5.45,5.45,0,0,1,3.1,3c.07.2.06.56.24.57,2.14.21,1.34,2,1.69,3.12A8,8,0,0,1,77,64.42c-.89-.35-1.06-1.38-1.79-1.89-2.1-1.44-3.61-3.59-5.78-4.93-1.38-.86-1.87-2.42-3.07-3.38C65.89,53.84,65.57,53.08,64.75,53.5Z"/><path class="cls-48" d="M83.59,59.42l-1.66,1.32a3.39,3.39,0,0,1-3.17-1.93c-.94-1.66-2.84-2.36-4.06-3.77-1.71-2-4.07-3.26-5.61-5.47-.92-1.32-2.67-1.87-3.84-3a7.86,7.86,0,0,1-2.16-3.61c.55-.92,1.55-1.31,2.32-2,.67-.14,1,.43,1.35.78C70.9,45.66,75,49.65,79.32,53.43c1,.87,1.7,2.07,2.63,3A7.47,7.47,0,0,1,83.59,59.42Z"/><path class="cls-49" d="M63.09,42.91a1.66,1.66,0,0,1,1,1,10.09,10.09,0,0,0,3.49,3.65,8.53,8.53,0,0,1,2.79,2.52c1.09,1.91,3.34,2.77,4.79,4.4,1.59,1.8,3.74,3,5.14,5a6.29,6.29,0,0,0,1.68,1.23l-2.64,2a2.23,2.23,0,0,1-.79-1.88c0-.33.11-.89-.45-.92s0,.76-.54.86c-.76-1.78-1.25-3.86-3.77-4-.44-1.79-2.45-1.88-3.56-3.09S68.43,50.41,66.27,50c-.44-.08-1.19-1.38-1.81-1.72-1.14-.63-.36-1.57-.87-2.23-.42.35,0,1-.31,1.41a8.18,8.18,0,0,0-2.19-2.93A5.81,5.81,0,0,1,63.09,42.91Z"/><path class="cls-50" d="M82,56.47c-.11.23-.06,1-.33.61a31.88,31.88,0,0,0-3.53-4c-1.43-1.3-2.83-2.63-4.36-3.83a35.53,35.53,0,0,1-3.89-3.87C69.25,44.75,68,44.16,68,44c-.45-1.42-2.08-1.75-2.54-3l.68-.65a14.39,14.39,0,0,1,4.12,3.65,3.85,3.85,0,0,0,1.23.88c1.55.65,1.61,2.51,2.92,3.26.18.1.3.34.49.43,2,1,1.85,1.08,3.84,3.34a5,5,0,0,0,2.45,1.66C82.08,53.74,82.29,55.29,82,56.47Z"/><path class="cls-6" d="M91.87,48.54l-2.32,1.64c-3.94,1.93-7.7,1.76-11.24-1-2.59-2.14-3.47-5-3.64-8.26-.43-2.14.51-3.86,1.67-5.53a10.35,10.35,0,0,1,11.22-3.49A6.9,6.9,0,0,1,92.2,35l0,.27a26.2,26.2,0,0,1,1.42,2.6A9.13,9.13,0,0,1,92.82,47C92.48,47.5,92.19,48,91.87,48.54Z"/><path class="cls-51" d="M76.68,35.65a21.79,21.79,0,0,0-2,5.28c-1.21-.72-1.58-2.72-3.64-2.25-.73.16-.45-.62-.2-.9A14.28,14.28,0,0,1,73.65,35c.41-.27.92-.41,1-1L76,33.65C77.31,33.94,76.85,34.84,76.68,35.65Z"/><path class="cls-52" d="M78.31,49.19c2.14,1.11,4.24,2.22,6.79,2a27.68,27.68,0,0,0,4.45-1c-1,1-2.26,1.15-3.53,1.34-.59.09-1.17.21-1.76.31-1.75-.44-3.6-.6-5.13-1.72C78.78,49.86,78.36,49.7,78.31,49.19Z"/><path class="cls-53" d="M64.75,53.5c-.12-1,.81-.82,1-.57.67,1.21,2.16,1.54,2.75,3a5.57,5.57,0,0,0,2.77,2.45,3.42,3.42,0,0,1,2.24,2.45c.12.39,1.15.55,1.74,1A4.13,4.13,0,0,1,77,64.42a1.15,1.15,0,0,1-1,.67c-.1-.48-.15-1-.74-1.17-.91-.31-1.12-1.11-1.21-2.08l-.91.82c.35-.85-.23-1.32-.73-1.63a31.64,31.64,0,0,1-5.75-5.2C66,55.17,64.74,54.77,64.75,53.5Z"/><path class="cls-54" d="M55.81,60.44c.16-.7.53-.67,1.09-.39a30.38,30.38,0,0,1,4.67,2.25,4.72,4.72,0,0,0,2.3.75,9,9,0,0,1,2.57,2,3.6,3.6,0,0,1-2.34-.48C61.37,63.13,58.42,62.14,55.81,60.44Z"/><path class="cls-55" d="M60.46,109.73l1,.33c1.19.12,2.38,0,3.57,0,.63,0,1.34-.13,1.72.61v1a2.77,2.77,0,0,1-1.45.67c-2.84,0-5.67.11-8.5,0a1.8,1.8,0,0,1-1.61-1h0c-.24-.27-.15-.59-.13-.9,1.24-.94,2.64-.2,3.95-.31A2.86,2.86,0,0,0,60.46,109.73Z"/><path class="cls-37" d="M55.15,111.39c2.12.88,4.33.36,6.49.41,1.69,0,3.38-.06,5.07-.09a2.16,2.16,0,0,1-2.3,1.45c-1.95,0-3.9,0-5.85,0a5.37,5.37,0,0,1-3.1-.81A1.12,1.12,0,0,1,55.15,111.39Z"/><path class="cls-56" d="M61.79,109.07l1-1.28a2.69,2.69,0,0,1,3.63,1.26.53.53,0,0,1-.18.71C65.19,110.58,62.6,110.17,61.79,109.07Z"/><path class="cls-57" d="M61.79,109.07a4.5,4.5,0,0,0,4.63,0c.47.49.28,1.1.3,1.67a16,16,0,0,0-4.63,0c-.77.09-.92,0-.66-.71Z"/><path class="cls-58" d="M98.49,39c-.13.76-.25,1.52-.37,2.28a2.4,2.4,0,0,0-1.21,1.47c-.15.33-.12.93-.77.83a1.16,1.16,0,0,1-1-1.07,27.85,27.85,0,0,0-.85-4c-.39-1.19-.56-2.62-2-3.16l0,0a2,2,0,0,1-.33-.6c-.2-.48-.36-1,.18-1.32a1.11,1.11,0,0,1,1.37.26,17.94,17.94,0,0,1,3.43,3.31C97.38,37.63,98.71,37.68,98.49,39Z"/><path class="cls-59" d="M114.36,109l1.35,1.36a15.57,15.57,0,0,1,0,5c-1.33,1.77-2.61,1.87-4.23.32a7.63,7.63,0,0,1-.09-5.6c.11-.58.71-.68,1-1A3.48,3.48,0,0,1,114.36,109Z"/><path class="cls-39" d="M111.35,110.07a20.2,20.2,0,0,0,.09,5.6A5.63,5.63,0,0,1,111.35,110.07Z"/><path class="cls-41" d="M115.67,115.35c0-1.65,0-3.3,0-5A7.53,7.53,0,0,1,115.67,115.35Z"/><path class="cls-39" d="M114.36,109h-2A1.67,1.67,0,0,1,114.36,109Z"/><path class="cls-60" d="M98.49,39c0-.1-.07-.26-.15-.29-2.09-.9-3.09-3-4.83-4.31-.41-.3-.75-.81-1.35-.62-.08,0,0,.6,0,.92-.88,0-1.13-.75-1.6-1.24a7.21,7.21,0,0,0-1-2.33c-.33-.49-.6-1,.1-1.52.13-.09-.13-.11-.14-.21a10.11,10.11,0,0,1,8.34,1.13c1.75,1.17,1.86,3.24,1.44,5.23C99.09,36.8,98.77,37.87,98.49,39Z"/><path class="cls-61" d="M89.55,29.35h.32c-.42,1.51,1.58,2.41,1,4-.69.41-1.15-.19-1.63-.43a9.75,9.75,0,0,0-9.33,0,10.74,10.74,0,0,1-1.77.87c-.53.15-1.45.48-1.15-.77l.32,0c.3-.27.73-.33,1-.66h0a3.23,3.23,0,0,0,1.32-.66h0C82.9,30.7,86.1,29.51,89.55,29.35Z"/><path class="cls-62" d="M84.53,109.76a2.13,2.13,0,0,1-.28,2.28l-.35.26a6.71,6.71,0,0,1-3.61.08v-3.3a6.71,6.71,0,0,1,3.61.07Z"/><path class="cls-36" d="M80.29,112.38a16.14,16.14,0,0,0,3.61-.08A3.82,3.82,0,0,1,80.29,112.38Z"/><path class="cls-28" d="M83.9,109.15a17.42,17.42,0,0,0-3.61-.07A3.79,3.79,0,0,1,83.9,109.15Z"/><path class="cls-5" d="M106.07,108.72c-.65,1.75-.18,3.56-.3,5.34a11.91,11.91,0,0,1-.29,2.77v-7.74a.68.68,0,0,1,.6-.67C106.31,108.53,106.31,108.63,106.07,108.72Z"/><path class="cls-63" d="M106.07,108.72a1.51,1.51,0,0,0,0-.3,5,5,0,0,1,2,.16A5.08,5.08,0,0,1,106.07,108.72Z"/><path class="cls-63" d="M50.72,113c-.49,0-1,0-1.47,0-2.91,0-3.39.76-2.37,3.65,1.31.77,2.8,0,4.16.65H47.16c-.71,0-.93-.43-.93-1.07V109.5c0-.63.21-1.07.93-1.07,1.29,0,2.58,0,3.87.08-1.35.55-2.84-.22-4.15.56-.61.84-.3,1.79-.28,2.68s.61.9,1.26,1C48.82,112.81,49.81,112.43,50.72,113Z"/><path class="cls-64" d="M100.09,112.28a6.29,6.29,0,0,1-4.21.35v-3.46a6,6,0,0,1,3.6-.06A2.23,2.23,0,0,1,100.09,112.28Z"/><path class="cls-63" d="M95.51,117.33a26.14,26.14,0,0,1,0-8.91Z"/><path class="cls-31" d="M99.47,109.11a9.09,9.09,0,0,0-3.6.06A3.59,3.59,0,0,1,99.47,109.11Z"/><path class="cls-57" d="M60.46,109.73c-.19.36.06,1-.74,1-1.51-.19-3,.17-4.54-.3a.45.45,0,0,1,0-.68,1.68,1.68,0,0,1,.65-1.38c1.26.61,2.51,1,3.67-.23l.66.66C60.22,109.07,60.34,109.4,60.46,109.73Z"/><path class="cls-65" d="M59.45,108.09c.14.6.29,1.25-.51,1.49a2.42,2.42,0,0,1-3.16-1.26C56.92,107,58.16,107.09,59.45,108.09Z"/><path class="cls-37" d="M55.13,109.7c0,.23,0,.45,0,.68l0,1c-.46-.47-.27-1.06-.31-1.61Z"/><path class="cls-19" d="M77,33a1,1,0,0,0,1.52.3c4.14-2.53,8.24-2.21,12.36,0a3.66,3.66,0,0,0,1.32,1.33c0,.21,0,.42,0,.63A11.18,11.18,0,0,0,84.94,32c-3.37-.11-6,1.4-8.26,3.68-.39-.61-.11-1.45-.69-2,.13-.2.25-.41.37-.61Z"/><path class="cls-19" d="M79.63,31.67c-.3.49-.59,1-1.32.66A1.94,1.94,0,0,1,79.63,31.67Z"/><path class="cls-19" d="M78.31,32.33c-.08.59-.51.66-1,.66A1.08,1.08,0,0,1,78.31,32.33Z"/><path class="cls-5" d="M79,38.29c2.22-3.22,5.65-4.17,8.88-2.49a6.53,6.53,0,0,1,2.93,8.09,6.56,6.56,0,0,1-11.48,1.33A6.44,6.44,0,0,1,79,38.29Z"/><path class="cls-66" d="M79,38.29a8.63,8.63,0,0,0,.33,6.93C77.76,43.87,78,42,77.94,40.27c-.08-.09-.1-.17,0-.23S78,40,78,40C78.46,39.47,78.24,38.6,79,38.29Z"/><path class="cls-67" d="M78,40a3,3,0,0,1-.07.32l-.48.61C77.57,40.52,76.73,39.56,78,40Z"/></g></g></svg>