<svg width="48" height="48" viewBox="0 0 48 48" fill="none" xmlns="http://www.w3.org/2000/svg">
<path fill-rule="evenodd" clip-rule="evenodd" d="M40.6225 7.37563C36.1819 2.93524 30.2781 0.489807 23.9984 0.489807C17.7185 0.489807 11.8145 2.93524 7.37402 7.37563C2.93362 11.8161 0.488281 17.72 0.488281 24.0001C0.488281 30.2797 2.93371 36.1836 7.37402 40.6241C11.8145 45.0647 17.7186 47.5102 23.9984 47.5102C30.2778 47.5102 36.1818 45.0647 40.6225 40.624C45.0632 36.1833 47.5087 30.2795 47.5087 24.0001C47.5087 17.7201 45.0632 11.8161 40.6225 7.37563ZM45.9464 23.2265H43.4064C43.2184 18.4528 41.3004 14.1167 38.2626 10.8291L40.0572 9.03439C43.5536 12.7835 45.7558 17.7533 45.9464 23.2265ZM23.9984 37.0901C16.7805 37.0901 10.9083 31.2179 10.9083 24C10.9083 16.7821 16.7805 10.9099 23.9984 10.9099C31.2163 10.9099 37.0885 16.7821 37.0885 24C37.0885 31.2179 31.2165 37.0901 23.9984 37.0901ZM30.8457 40.5133C29.4223 41.1058 27.9064 41.5196 26.3262 41.7261L26.0435 38.494C27.2393 38.326 28.3892 38.0133 29.4747 37.5738L30.8457 40.5133ZM13.1209 14.2166C12.3295 15.0957 11.643 16.0708 11.0811 17.1222L8.14067 15.7508C8.86838 14.3574 9.77408 13.0713 10.828 11.9229L13.1209 14.2166ZM11.9221 10.8289C13.0706 9.77505 14.3567 8.86945 15.7502 8.14164L17.1217 11.082C16.0699 11.6441 15.0944 12.3308 14.2149 13.1225L11.9221 10.8289ZM10.4249 18.5234C9.9853 19.6092 9.67241 20.7592 9.50463 21.9553L6.27142 21.6718C6.47787 20.0915 6.89178 18.5756 7.4844 17.1518L10.4249 18.5234ZM9.37073 23.4967C9.36504 23.6639 9.36118 23.8314 9.36118 23.9999C9.36118 25.0405 9.47111 26.0559 9.67857 27.0356L6.54427 27.8752C6.26729 26.6269 6.11999 25.3304 6.11999 23.9999C6.11999 23.7363 6.12687 23.4742 6.13826 23.2132L9.37073 23.4967ZM10.0795 28.53C10.4514 29.6698 10.9595 30.7485 11.5848 31.7469L8.92734 33.6078C8.09108 32.3008 7.42049 30.8781 6.9445 29.3699L10.0795 28.53ZM12.4733 33.0136C13.2059 33.9482 14.0495 34.7919 14.9842 35.5245L13.1246 38.1802C11.8838 37.2265 10.7712 36.1141 9.81742 34.8732L12.4733 33.0136ZM16.2509 36.4131C17.2493 37.0386 18.328 37.5469 19.468 37.9188L18.6282 41.0529C17.1201 40.577 15.6974 39.9064 14.3903 39.0702L16.2509 36.4131ZM17.1513 7.48565C18.575 6.89312 20.0907 6.47931 21.671 6.27286L21.9543 9.50606C20.7584 9.67385 19.6084 9.98655 18.5227 10.4262L17.1513 7.48565ZM35.5228 14.9852C34.7903 14.0509 33.947 13.2076 33.0126 12.4751L34.8721 9.81904C36.1129 10.7727 37.2251 11.8851 38.1787 13.1259L35.5228 14.9852ZM39.0687 14.3916C39.9049 15.6986 40.5754 17.1212 41.0514 18.6294L37.9174 19.4695C37.5453 18.3294 37.0369 17.2505 36.4114 16.2519L39.0687 14.3916ZM31.7458 11.5867C30.7473 10.9612 29.6685 10.453 28.5284 10.0811L29.3687 6.94621C30.8769 7.42229 32.2994 8.09288 33.6065 8.92905L31.7458 11.5867ZM33.7819 34.8777L36.0747 37.1699C34.9266 38.2238 33.6405 39.1295 32.2471 39.8572L30.876 36.9178C31.9275 36.3556 32.9028 35.6692 33.7819 34.8777ZM34.876 33.7837C35.6678 32.9042 36.3545 31.9286 36.9166 30.8767L39.856 32.2476C39.1284 33.641 38.2227 34.9273 37.1688 36.0757L34.876 33.7837ZM37.5724 29.4754C38.0119 28.3898 38.3245 27.2401 38.4924 26.0444L41.7245 26.3271C41.5183 27.9072 41.1044 29.4229 40.512 30.8464L37.5724 29.4754ZM38.6262 24.5028C38.6319 24.3359 38.6358 24.1684 38.6358 23.9999C38.6359 22.9592 38.5259 21.9438 38.3184 20.964L41.4515 20.124C41.7286 21.3725 41.8759 22.6693 41.8759 24C41.8759 24.2632 41.869 24.525 41.8576 24.7854L38.6262 24.5028ZM24.7722 2.05223C30.2448 2.24279 35.2141 4.44448 38.9633 7.94034L37.1686 9.73483C33.881 6.69705 29.5453 4.77895 24.7722 4.59096V2.05223ZM27.874 6.5458L27.034 9.67991C26.0543 9.47245 25.039 9.36252 23.9984 9.36252C23.8301 9.36252 23.6627 9.36647 23.4959 9.37207L23.2125 6.1396C23.4733 6.12822 23.7351 6.12133 23.9985 6.12133C25.329 6.12142 26.6257 6.26873 27.874 6.5458ZM23.2248 2.05204V4.59105C18.4512 4.77895 14.1153 6.69705 10.8274 9.73501L9.0257 7.93317C12.9162 4.30158 17.9055 2.23489 23.2248 2.05204ZM7.93165 9.02723L9.73339 10.829C6.69553 14.1167 4.77742 18.4528 4.58943 23.2263H2.05042C2.23336 17.9071 4.29996 12.9178 7.93165 9.02723ZM2.05061 24.7737H4.58934C4.77733 29.5469 6.69534 33.8827 9.73321 37.1701L7.93872 38.9646C4.44305 35.2156 2.24117 30.2462 2.05061 24.7737ZM23.2249 45.9479C17.7517 45.7573 12.7818 43.5551 9.03268 40.0588L10.8274 38.2642C14.1152 41.302 18.4512 43.2201 23.2249 43.4081V45.9479ZM20.1228 41.4531L20.9623 38.3199C21.9422 38.5275 22.9576 38.6374 23.9984 38.6374C24.167 38.6374 24.3347 38.6335 24.5018 38.6279L24.7845 41.8593C24.5239 41.8707 24.262 41.8776 23.9984 41.8776C22.6679 41.8775 21.3711 41.7302 20.1228 41.4531ZM24.7721 45.9479V43.408C29.5453 43.22 33.8811 41.3021 37.1688 38.2643L38.9637 40.0592C35.2145 43.5553 30.2449 45.7573 24.7721 45.9479ZM45.9465 24.7738C45.7558 30.2465 43.5537 35.2161 40.0578 38.9653L38.2628 37.1703C41.3005 33.8827 43.2185 29.547 43.4065 24.7738H45.9465ZM15.9696 15.9709C16.8688 15.0716 18.3323 15.0715 19.2317 15.9709C19.939 16.6782 20.0875 17.7333 19.6823 18.5897L23.011 21.9183C23.6346 21.6232 24.3625 21.6232 24.9863 21.9183L28.3148 18.5898C27.9096 17.7334 28.0581 16.6783 28.7655 15.971C29.6647 15.0716 31.1282 15.0716 32.0276 15.971C32.9269 16.8704 32.9269 18.3338 32.0276 19.2331C31.5779 19.6829 30.9873 19.9078 30.3965 19.9078C30.0581 19.9078 29.7206 19.8314 29.409 19.6837L26.0805 23.0122C26.3757 23.6358 26.3757 24.3638 26.0805 24.9875L29.4091 28.3161C30.2655 27.9109 31.3207 28.0594 32.028 28.7667C32.9273 29.6661 32.9273 31.1295 32.028 32.0289C31.5782 32.4787 30.9875 32.7036 30.3968 32.7036C29.8061 32.7036 29.2154 32.4787 28.7657 32.0289C28.0584 31.3216 27.9099 30.2664 28.3151 29.4101L24.9865 26.0816C24.6746 26.2292 24.3371 26.3055 23.9988 26.3055C23.6603 26.3055 23.3228 26.2292 23.011 26.0816L19.6823 29.4101C20.0875 30.2665 19.939 31.3216 19.2317 32.0289C18.782 32.4787 18.1914 32.7036 17.6006 32.7036C17.0099 32.7036 16.4191 32.4787 15.9695 32.0289C15.0701 31.1296 15.0701 29.6662 15.9695 28.7668C16.6768 28.0595 17.732 27.911 18.5883 28.3162L21.9169 24.9876C21.6218 24.364 21.6218 23.6361 21.9169 23.0123L18.5884 19.6838C18.2765 19.8314 17.939 19.9077 17.6007 19.9077C17.01 19.9077 16.4192 19.6828 15.9696 19.233C15.0702 18.3337 15.0702 16.8703 15.9696 15.9709ZM17.6004 29.6391C17.406 29.6391 17.2116 29.7131 17.0634 29.8611C16.92 30.0046 16.841 30.1953 16.841 30.3981C16.841 30.6009 16.92 30.7916 17.0634 30.9351C17.3597 31.2312 17.8414 31.2311 18.1376 30.9351C18.4336 30.639 18.4336 30.1572 18.1376 29.8611C17.9894 29.7131 17.7949 29.6391 17.6004 29.6391ZM30.3964 29.6391C30.202 29.6391 30.0075 29.7131 29.8594 29.8611C29.716 30.0046 29.637 30.1953 29.637 30.3981C29.637 30.6009 29.716 30.7916 29.8594 30.9351C30.1557 31.2312 30.6374 31.2311 30.9335 30.9351C31.2296 30.639 31.2296 30.1572 30.9335 29.8611C30.7855 29.7131 30.5911 29.6391 30.3964 29.6391ZM23.9984 23.2405C23.7956 23.2405 23.6048 23.3195 23.4614 23.4629C23.318 23.6064 23.239 23.7971 23.239 23.9999C23.239 24.2029 23.318 24.3936 23.4614 24.5371C23.7576 24.8332 24.2394 24.8332 24.5355 24.5371C24.8317 24.2409 24.8317 23.7591 24.5355 23.4629C24.392 23.3195 24.2013 23.2405 23.9984 23.2405ZM30.3965 16.8425C30.1937 16.8425 30.003 16.9215 29.8595 17.065C29.7161 17.2085 29.6371 17.3992 29.6371 17.6019C29.6371 17.8049 29.7161 17.9956 29.8595 18.1391C30.1558 18.4353 30.6375 18.4352 30.9336 18.1391C31.2298 17.8429 31.2298 17.3611 30.9336 17.065C30.7901 16.9215 30.5993 16.8425 30.3965 16.8425ZM17.6004 16.8425C17.3976 16.8425 17.2069 16.9215 17.0634 17.065C16.92 17.2084 16.841 17.3992 16.841 17.6019C16.841 17.8049 16.92 17.9956 17.0634 18.1391C17.3597 18.4352 17.8414 18.435 18.1376 18.1391C18.4337 17.843 18.4337 17.3611 18.1376 17.065C17.994 16.9215 17.8033 16.8425 17.6004 16.8425Z" fill="#AFEE38" stroke="#AFEE38" stroke-width="0.724528"/>
</svg>
