<svg width="47" height="48" viewBox="0 0 47 48" fill="none" xmlns="http://www.w3.org/2000/svg">
<g clip-path="url(#clip0)">
<path fill-rule="evenodd" clip-rule="evenodd" d="M13.0625 17.9996H5.06206C4.51016 17.9996 4.0625 18.4472 4.0625 19V32.9996C4.0625 33.5521 4.51006 33.9986 5.06206 33.9986H13.0625C13.6145 33.9986 14.0621 33.552 14.0621 32.9996V19C14.0621 18.4472 13.6145 17.9996 13.0625 17.9996ZM12.0621 32.0004H6.06209V20.0001H12.0621V32.0004Z" fill="#56FFF1"/>
<path fill-rule="evenodd" clip-rule="evenodd" d="M26.0625 19V32.9996C26.0625 33.5521 26.511 33.9986 27.0616 33.9986H35.0626C35.614 33.9986 36.0616 33.552 36.0616 32.9996V19C36.0616 18.4473 35.614 17.9996 35.0626 17.9996H27.0616C26.511 17.9996 26.0625 18.4472 26.0625 19ZM28.0635 20.0001H34.0635V32.0004H28.0635V20.0001Z" fill="#56FFF1"/>
<path fill-rule="evenodd" clip-rule="evenodd" d="M24.0625 17.9996H16.0629C15.5105 17.9996 15.0625 18.4472 15.0625 19V32.9996C15.0625 33.5521 15.5106 33.9986 16.0629 33.9986H24.0625C24.615 33.9986 25.0634 33.552 25.0634 32.9996V19C25.0634 18.4472 24.615 17.9996 24.0625 17.9996ZM23.0625 32.0004H17.0625V20.0001H23.0625V32.0004Z" fill="#56FFF1"/>
<path fill-rule="evenodd" clip-rule="evenodd" d="M7.55034 24.9996H8.92669L7.65731 27.518C7.40925 28.0115 7.60772 28.6135 8.10037 28.8618C8.24466 28.9334 8.39869 28.9684 8.54944 28.9684C8.91572 28.9684 9.26775 28.768 9.44372 28.4178L11.4433 24.4499C11.6924 23.9564 11.4938 23.3553 11.0003 23.1067C10.8587 23.035 10.7071 23.0019 10.5586 23.0005C10.5554 23.0005 10.5531 23.0001 10.5503 23.0001H7.55034C6.99834 23.0001 6.55078 23.4472 6.55078 23.9996C6.55078 24.552 6.99844 24.9996 7.55034 24.9996Z" fill="#56FFF1"/>
<path fill-rule="evenodd" clip-rule="evenodd" d="M18.5624 24.9996H19.9384L18.6695 27.518C18.4209 28.0115 18.6194 28.6135 19.1126 28.8618C19.2568 28.9334 19.4108 28.9684 19.5616 28.9684C19.9278 28.9684 20.2798 28.768 20.4559 28.4178L22.4549 24.4499C22.704 23.9564 22.5055 23.3553 22.0119 23.1067C21.8698 23.035 21.7192 23.0019 21.5703 23.0005C21.5675 23.0005 21.5653 23.0001 21.5625 23.0001H18.5625C18.0102 23.0001 17.5625 23.4472 17.5625 23.9996C17.5625 24.552 18.0101 24.9996 18.5624 24.9996Z" fill="#56FFF1"/>
<path fill-rule="evenodd" clip-rule="evenodd" d="M33.0121 23.1067C32.8714 23.035 32.7198 23.0019 32.5699 23.0005C32.569 23.0005 32.5653 23.0001 32.5644 23.0001H29.5644C29.0102 23.0001 28.5625 23.4472 28.5625 23.9996C28.5625 24.552 29.0101 24.9996 29.5644 24.9996H30.9394L29.6701 27.518C29.421 28.0115 29.6195 28.6135 30.1131 28.8618C30.2583 28.9334 30.411 28.9684 30.5635 28.9684C30.9285 28.9684 31.2813 28.768 31.4569 28.4178L33.456 24.4499C33.7042 23.9564 33.5066 23.3553 33.0121 23.1067Z" fill="#56FFF1"/>
<path fill-rule="evenodd" clip-rule="evenodd" d="M20.0625 13.0005C20.6149 13.0005 21.0621 12.552 21.0621 11.9995V4.0005C21.0621 3.44803 20.6149 3 20.0625 3C19.5102 3 19.0625 3.44803 19.0625 4.0005V11.9995C19.0625 12.552 19.5102 13.0005 20.0625 13.0005Z" fill="#56FFF1"/>
<path fill-rule="evenodd" clip-rule="evenodd" d="M16.1971 13.3043C16.3819 13.6251 16.7178 13.8038 17.0638 13.8038C17.2334 13.8038 17.4057 13.7606 17.5628 13.6696C18.0413 13.3934 18.2049 12.7822 17.9286 12.3038L13.9286 5.37601C13.6529 4.89751 13.0412 4.73345 12.5629 5.00973C12.0848 5.28592 11.9203 5.89764 12.1966 6.37548L16.1971 13.3043Z" fill="#56FFF1"/>
<path fill-rule="evenodd" clip-rule="evenodd" d="M15.7318 15.5001C16.008 15.0216 15.8439 14.4099 15.3655 14.1343L8.43769 10.1343C7.95919 9.85763 7.34756 10.0217 7.07184 10.4995C6.79566 10.978 6.95878 11.5897 7.43766 11.8658L14.366 15.8663C14.5231 15.9568 14.6955 16 14.8645 16C15.2103 16 15.5467 15.8209 15.7318 15.5001Z" fill="#56FFF1"/>
<path fill-rule="evenodd" clip-rule="evenodd" d="M31.6869 10.1343L24.7576 14.1343C24.2796 14.4099 24.116 15.0217 24.3918 15.5001C24.5766 15.8209 24.913 16 25.2585 16C25.4285 16 25.6004 15.9568 25.7566 15.8663L32.6859 11.8658C33.1629 11.5897 33.3275 10.9779 33.0517 10.4995C32.776 10.0216 32.1639 9.85754 31.6869 10.1343Z" fill="#56FFF1"/>
<path fill-rule="evenodd" clip-rule="evenodd" d="M22.5625 13.6697C22.72 13.7612 22.892 13.8039 23.062 13.8039C23.4071 13.8039 23.743 13.6252 23.9287 13.3044L27.9287 6.3756C28.2044 5.89767 28.04 5.28604 27.5629 5.00985C27.085 4.73367 26.4729 4.89773 26.1971 5.37614L22.1971 12.3039C21.9204 12.7823 22.084 13.3934 22.5625 13.6697Z" fill="#56FFF1"/>
<path fill-rule="evenodd" clip-rule="evenodd" d="M20.7694 16.7068C21.1605 16.3167 21.1605 15.6829 20.7694 15.2927C20.3788 14.9021 19.7459 14.9021 19.3558 15.2927C18.9647 15.6829 18.9647 16.3167 19.3558 16.7068C19.746 17.0974 20.3788 17.0974 20.7694 16.7068Z" fill="#56FFF1"/>
<path fill-rule="evenodd" clip-rule="evenodd" d="M45.0607 23.0001H44.0617V15.8282C45.2253 15.415 46.0626 14.3033 46.0626 13.0005C46.0626 11.3456 44.7153 10.0005 43.0636 10.0005C41.4082 10.0005 40.0636 11.3456 40.0636 13.0005C40.0636 14.3033 40.898 15.415 42.0608 15.8282V23.0001H41.0628C41.0628 22.4476 40.6142 22 40.0637 22V20.0001C40.0637 14.6577 37.9818 9.63553 34.2043 5.85797C30.4276 2.08088 25.4044 0 20.0626 0C14.7202 0 9.69812 2.08088 5.92047 5.85797C2.14338 9.63553 0.0625 14.6576 0.0625 20.0001V42.9986C0.0625 43.5519 0.511 44.0006 1.063 44.0006H3.0625V47.0006C3.0625 47.551 3.51053 47.9996 4.063 47.9996H36.0617C36.615 47.9996 37.0636 47.551 37.0636 47.0006V44.0006H39.0608C39.6151 44.0006 40.0636 43.552 40.0636 42.9986V29.9996C40.6141 29.9996 41.0627 29.551 41.0627 29.0006H45.0607C45.615 29.0006 46.0626 28.552 46.0626 27.9986V23.9996C46.0626 23.4472 45.6151 23.0001 45.0607 23.0001ZM35.0627 45.9978H33.0617C33.0617 45.4474 32.6141 44.9997 32.0627 44.9997C31.5102 44.9997 31.0635 45.4474 31.0635 45.9978H29.0626C29.0626 45.4474 28.6141 44.9997 28.0636 44.9997C27.5093 44.9997 27.0617 45.4474 27.0617 45.9978H15.0626C15.0626 45.4474 14.615 44.9997 14.0626 44.9997H8.06256C7.51056 44.9997 7.063 45.4474 7.063 45.9978H5.06256V44.0006H35.0627V45.9978ZM14.0538 41.0006C14.6062 41.0006 15.0534 40.552 15.0534 39.9986H16.0718C16.0718 40.5519 16.5195 41.0006 17.0714 41.0006H23.0539C23.6058 41.0006 24.0535 40.552 24.0535 39.9986H25.0718C25.0718 40.5519 25.5194 41.0006 26.0709 41.0006H32.0534C32.6057 41.0006 33.0525 40.552 33.0525 39.9986H34.2812L34.7813 41.9996H5.34334L5.84331 39.9986H7.07172C7.07172 40.552 7.51937 41.0006 8.07175 41.0006H14.0538ZM9.07178 38.9996V38.0006H13.0534V38.9996H9.07178ZM18.0718 38.9996V38.0006H22.0534V38.9996H18.0718ZM27.0718 38.9996V38.0006H31.0534V38.9996H27.0718ZM38.0627 41.9996H36.8439L36.0323 38.7561C35.921 38.3111 35.5203 38.0005 35.0627 38.0005H33.0526V36.9985C33.0526 36.447 32.6058 35.9995 32.0535 35.9995H26.071C25.5195 35.9995 25.0719 36.447 25.0719 36.9985V38.0005H24.0536V36.9985C24.0536 36.447 23.6059 35.9995 23.054 35.9995H17.0715C16.5196 35.9995 16.0719 36.447 16.0719 36.9985V38.0005H15.0535V36.9985C15.0535 36.447 14.6063 35.9995 14.0539 35.9995H8.07175C7.51937 35.9995 7.07172 36.447 7.07172 36.9985V38.0005H5.06256C4.60441 38.0005 4.20362 38.311 4.09244 38.7561L3.28225 41.9996H2.06294V20.0001C2.06294 15.1917 3.93475 10.6719 7.3345 7.27209C10.7344 3.87225 15.2552 1.99997 20.0626 1.99997C24.8695 1.99997 29.3907 3.87225 32.7905 7.27209C36.1905 10.6719 38.0627 15.1917 38.0627 20.0001V41.9996ZM43.0636 11.9995C43.6141 11.9995 44.0617 12.4486 44.0617 13.0005C44.0617 13.552 43.6141 14.0001 43.0636 14.0001C42.5112 14.0001 42.0608 13.552 42.0608 13.0005C42.0607 12.4486 42.5112 11.9995 43.0636 11.9995ZM44.0617 26.9996H41.0627V24.9996H44.0617V26.9996Z" fill="#56FFF1"/>
</g>
<defs>
<clipPath id="clip0">
<rect width="46.5" height="48" fill="white"/>
</clipPath>
</defs>
</svg>
