<svg xmlns="http://www.w3.org/2000/svg" viewBox="0 0 150 150"><defs><style>.cls-1{fill:#1d1f23;}.cls-2{fill:#fff;}</style></defs><g id="Layer_2" data-name="Layer 2"><g id="Layer_1-2" data-name="Layer 1"><rect class="cls-1" width="150" height="150"/><path class="cls-2" d="M97.11,78.35a26.59,26.59,0,0,0-.5,2.92c-.21,2.67-.33,5.34-.5,8a.71.71,0,0,1-.24.52,6.36,6.36,0,0,1-4,.87,2.08,2.08,0,0,1-2-2.12c0-.22,0-.44,0-.74-.2.25-.34.44-.51.62-.42.46-.83.93-1.29,1.35a3.11,3.11,0,0,1-4.62-.38,10.75,10.75,0,0,1-.8-1.19,4,4,0,0,1-.26-.51c-.41.35-.77.69-1.17,1a8.79,8.79,0,0,1-4.74,2A4.87,4.87,0,0,1,71.6,87.9a1,1,0,0,1-.09-.18l-.36.24A14.15,14.15,0,0,1,65,90.57a11.58,11.58,0,0,1-3,0,3.54,3.54,0,0,1-3.23-3.82,26.25,26.25,0,0,1,.5-4.23c.49-2.52,1.08-5,1.63-7.54l0-.24c-.65.24-1.24.5-1.86.69-1.13.35-2.27.69-3.41,1a1.92,1.92,0,0,1-2-.63,7.42,7.42,0,0,1-1.6-3.1c-.09-.3.13-.35.33-.42l5.87-2.06c1.17-.41,2.34-.82,3.52-1.2a.73.73,0,0,0,.54-.58c.54-2.19,1.07-4.38,1.68-6.56a4.94,4.94,0,0,1,3.42-3.66c.88-.27,1.79-.43,2.7-.64a1.07,1.07,0,0,1,.31,0c.43,0,.5.14.41.55-.34,1.52-.68,3-1,4.55s-.69,3-1,4.5c0,.1,0,.2-.05.36.66-.14,1.29-.29,1.92-.4,1.3-.23,2.6-.46,3.9-.63a3.22,3.22,0,0,1,1.31.12.91.91,0,0,1,.56,1.43A32.45,32.45,0,0,1,74,71.28a2.71,2.71,0,0,1-1.37.58c-1.68.42-3.38.8-5.06,1.2a.55.55,0,0,0-.33.32c-.88,3.61-1.77,7.22-2.6,10.84a3.74,3.74,0,0,0,.08,1.66,1.28,1.28,0,0,0,1.73,1A14.06,14.06,0,0,0,68.7,86c.72-.36,1.39-.82,2.08-1.23a.63.63,0,0,0,.33-.57A13.93,13.93,0,0,1,77.38,73a8.92,8.92,0,0,1,4.5-1.56,1.57,1.57,0,0,1,1.61.73,1.5,1.5,0,0,0,1.42.73c.4,0,.79,0,1.18,0,.82,0,1.28.36,1.31,1.18a12.64,12.64,0,0,1-.12,2.46c-.29,1.73-.67,3.46-1,5.19a10.81,10.81,0,0,0,0,4c.23,1.24.8,1.49,1.82.78a7.92,7.92,0,0,0,2.36-2.79,6.33,6.33,0,0,0,.36-1.6c1-4.16,1.91-8.32,2.88-12.47.82-3.49,1.67-7,2.51-10.47.08-.36.11-.72.2-1.08a.43.43,0,0,1,.22-.3,6.08,6.08,0,0,1,3.51-.09,2.36,2.36,0,0,1,1.77,2.4,17.25,17.25,0,0,1-.92,5c-.73,2.47-1.52,4.93-2.27,7.4-.16.52-.25,1.06-.38,1.59l.11.1c.81-.57,1.64-1.1,2.41-1.72a51,51,0,0,0,6.88-6.9.53.53,0,0,1,.69-.22,13.85,13.85,0,0,1,1.93.83,1.3,1.3,0,0,1,.48,1.85,9.8,9.8,0,0,1-1.48,2,64.91,64.91,0,0,1-7.42,6.33.94.94,0,0,0-.45,1,34.07,34.07,0,0,0,3,9.86,14.81,14.81,0,0,0,3.39,4.61,8.72,8.72,0,0,0,6.07,2.32,13.17,13.17,0,0,0,8.16-2.5c.41-.3.79-.65,1.18-1s.57-.25.66.23a3.94,3.94,0,0,1-1.34,3.92,9.41,9.41,0,0,1-4.38,2,18.63,18.63,0,0,1-8.69-.07,13.93,13.93,0,0,1-8.24-6.29,26.22,26.22,0,0,1-3.45-9c-.19-1-.32-1.9-.49-2.86a1.53,1.53,0,0,0-.07-.29ZM82.92,74.83l-.53.09a4.06,4.06,0,0,0-1.82,1,15.77,15.77,0,0,0-4.3,6.72,6.48,6.48,0,0,0-.39,2.65,1.5,1.5,0,0,0,1.67,1.53A4.11,4.11,0,0,0,79,86.49a4.86,4.86,0,0,0,2.35-2.67,17.5,17.5,0,0,0,1.34-5.61C82.81,77.11,82.85,76,82.92,74.83Z"/><path class="cls-2" d="M44.08,50.52A17,17,0,0,1,51.7,52a7.84,7.84,0,0,1,4.37,4.47A8.25,8.25,0,0,1,55.64,63a5.62,5.62,0,0,1-5.88,3,7.2,7.2,0,0,1-1.44-.35,2.12,2.12,0,0,1-.73-.5c-.46-.44-.4-.58,0-1a25.91,25.91,0,0,0,2.25-2.44c1.86-2.42.52-4.86-1-6a6.45,6.45,0,0,0-3.73-1.25,15.75,15.75,0,0,0-7.43,1.2,8.54,8.54,0,0,0-5.18,7.21,9.49,9.49,0,0,0,0,2.38,5,5,0,0,0,1.83,3,22.43,22.43,0,0,0,5,3.29c2.7,1.4,5.42,2.75,8.11,4.17A21,21,0,0,1,52.23,79a7.47,7.47,0,0,1,2.6,4.81,12,12,0,0,1-.57,4.6A13.66,13.66,0,0,1,48,96,24,24,0,0,1,39.2,99.1a27,27,0,0,1-5.31.37,9.05,9.05,0,0,1-4.13-1.09,6.79,6.79,0,0,1-3.57-5.69,13.32,13.32,0,0,1,1.51-7.58,8.15,8.15,0,0,1,8-4.43A2.65,2.65,0,0,1,38.23,83a.37.37,0,0,1-.28.49,9.75,9.75,0,0,0-5,3.82,7.4,7.4,0,0,0-1.24,4.65,3.44,3.44,0,0,0,2.34,2.93,6.23,6.23,0,0,0,3.55.24,15.56,15.56,0,0,0,6.62-2.58A9,9,0,0,0,48.32,85a4.51,4.51,0,0,0-1.62-3.36,18.21,18.21,0,0,0-4.59-3c-2.38-1.17-4.78-2.29-7.15-3.48a24.05,24.05,0,0,1-5.59-3.71,9.45,9.45,0,0,1-3.17-5.37,13.27,13.27,0,0,1,.23-5.25A11.78,11.78,0,0,1,34,52.27a23.84,23.84,0,0,1,7.54-1.63C42.35,50.57,43.21,50.55,44.08,50.52Z"/><path class="cls-2" d="M113.1,82.79a4.19,4.19,0,0,0,.09,2.2,2.52,2.52,0,0,0,2.61,1.79,6.84,6.84,0,0,0,5-1.91c.26-.24.52-.48.76-.74a.33.33,0,0,1,.48-.07,2.68,2.68,0,0,1,1.31,2,1.52,1.52,0,0,1-.37,1,9.39,9.39,0,0,1-3.2,2.34,10.11,10.11,0,0,1-6.66.91,6.76,6.76,0,0,1-5.42-5.7A10.07,10.07,0,0,1,109.43,77a12.66,12.66,0,0,1,7.28-5.42,6.71,6.71,0,0,1,5,.51,3.41,3.41,0,0,1,2,3.77c-.24,3.37-2.66,5.67-5.81,6.54a13.13,13.13,0,0,1-4.46.43Zm.44-1.72.11.13A14,14,0,0,0,115.1,81a6.79,6.79,0,0,0,4.58-4.16,5.11,5.11,0,0,0,.39-2.53c0-.56-.28-.7-.82-.6a3.94,3.94,0,0,0-1.79.92,12,12,0,0,0-3,4.1C114.08,79.49,113.84,80.29,113.54,81.07Z"/></g></g></svg>