<svg width="48" height="34" viewBox="0 0 48 34" fill="none" xmlns="http://www.w3.org/2000/svg">
<path fill-rule="evenodd" clip-rule="evenodd" d="M46.725 0.489746H36.5373C36.3294 0.489746 36.1301 0.572385 35.9832 0.719362L34.6455 2.05709H13.3515L12.0138 0.719362C11.8668 0.572385 11.6675 0.489746 11.4597 0.489746H1.27195C0.839144 0.489746 0.488281 0.840609 0.488281 1.27342V32.6204C0.488281 33.0532 0.839144 33.404 1.27195 33.404H46.725C47.1578 33.404 47.5087 33.0532 47.5087 32.6204V1.27342C47.5087 0.840609 47.1578 0.489746 46.725 0.489746ZM29.4842 3.62444H33.0781L31.5108 5.19179H29.4842V3.62444ZM26.3495 3.62444H27.9169V5.19179H26.3495V3.62444ZM23.2148 3.62444H24.7822V5.19179H23.2148V3.62444ZM20.0801 3.62444H21.6475V5.19179H20.0801V3.62444ZM18.5128 3.62444V5.19179H16.4862L14.9188 3.62444H18.5128ZM45.9413 31.8367H2.05563V2.05709H11.1353L15.6077 6.52952C15.7546 6.6765 15.9539 6.75909 16.1618 6.75913H31.8352C32.043 6.75909 32.2423 6.6765 32.3893 6.52952L36.8617 2.05709H45.9413V31.8367ZM32.6189 8.32648H15.3781V14.5959H32.6189V8.32648ZM31.0515 13.0285H16.9454V9.89383H31.0515V13.0285ZM23.2148 16.1632H24.7822V20.0816H23.2148V16.1632ZM42.733 9.89383H35.6799C35.2471 9.89383 34.8963 10.2447 34.8963 10.6775C34.8974 12.8236 34.2661 14.9224 33.0813 16.7118C31.7742 18.6785 29.8715 20.1748 27.652 20.9812C25.2723 21.8642 22.6549 21.8642 20.2753 20.9812C18.0552 20.1746 16.1519 18.6781 14.8444 16.711C13.6587 14.9222 13.0266 12.8236 13.0271 10.6775C13.0271 10.2447 12.6762 9.89383 12.2434 9.89383H5.19032C4.75751 9.89383 4.40665 10.2447 4.40665 10.6775C4.40665 21.4636 13.1247 30.221 23.9107 30.2693H24.0126C31.3991 30.236 38.139 26.0509 41.4446 19.4452C42.8144 16.726 43.5242 13.7223 43.5167 10.6775C43.5167 10.2447 43.1658 9.89383 42.733 9.89383ZM5.99045 11.4612H11.484C11.5968 13.2856 12.1094 15.0629 12.9855 16.6671L7.60169 18.1624C6.6329 16.055 6.08555 13.7786 5.99045 11.4612ZM8.33129 19.5871L13.8625 18.0511C15.1003 19.739 16.7374 21.0937 18.6272 21.9937L14.5787 26.0414C11.9845 24.4522 9.83513 22.2317 8.33129 19.5871ZM23.1427 28.6777C20.6637 28.5588 18.2359 27.9294 16.0113 26.829L20.2212 22.6191C21.1705 22.9224 22.1526 23.1113 23.1466 23.1818L23.1427 28.6777ZM24.7837 28.6777V23.1841C25.7778 23.1136 26.7599 22.9247 27.7092 22.6215L31.9191 26.8314C29.6928 27.9325 27.2631 28.5619 24.7822 28.68L24.7837 28.6777ZM33.3461 26.0391L29.2969 21.9937C31.1865 21.0937 32.8233 19.739 34.0609 18.0511L39.592 19.5871C38.0886 22.2321 35.9392 24.4527 33.3446 26.0414L33.3461 26.0391ZM40.3208 18.16L34.937 16.6648C35.8129 15.0612 36.3258 13.2848 36.4393 11.4612H41.9328C41.8378 13.7786 41.2904 16.055 40.3216 18.1624L40.3208 18.16ZM8.32502 13.8122H9.89236V15.3795H8.32502V13.8122ZM12.2434 20.8653H13.8107V22.4326H12.2434V20.8653ZM20.0801 24.7836H21.6475V26.351H20.0801V24.7836ZM26.3495 24.7836H27.9169V26.351H26.3495V24.7836ZM33.4026 20.8653H34.9699V22.4326H33.4026V20.8653ZM38.1046 13.8122H39.672V15.3795H38.1046V13.8122ZM5.19032 5.19179H8.32502V3.62444H3.62298V8.32648H5.19032V5.19179ZM42.8066 8.32648H44.374V3.62444H39.672V5.19179H42.8066V8.32648Z" fill="#FFD63D" stroke="#FFD63D" stroke-width="0.7"/>
</svg>
