<svg width="13" height="16" viewBox="0 0 13 16" fill="none" xmlns="http://www.w3.org/2000/svg">
<path fill-rule="evenodd" clip-rule="evenodd" d="M10.5697 8.53103C11.4527 8.34703 12.1277 7.78303 12.3287 6.59403C12.6057 4.96903 11.3807 4.06603 9.69367 3.44503L10.2897 1.24903L8.95167 0.886032L8.37167 3.02503C8.01494 2.92943 7.65726 2.83742 7.29867 2.74903L7.88167 0.596032L6.54467 0.233032L5.94767 2.42803C5.65767 2.35603 5.37067 2.28403 5.09267 2.20803L5.09467 2.20203L3.24867 1.70003L2.85967 3.12803C2.85967 3.12803 3.85367 3.37803 3.83267 3.39203C4.37467 3.53903 4.46567 3.90203 4.44267 4.18703L3.76467 6.69003C3.80167 6.70003 3.84967 6.71403 3.90367 6.73703L3.76167 6.69903L2.80967 10.205C2.73967 10.369 2.56567 10.614 2.18667 10.511C2.19967 10.531 1.21267 10.247 1.21267 10.247L0.513672 11.771L2.25567 12.244C2.45771 12.2994 2.65665 12.3555 2.85323 12.4109C2.97287 12.4446 3.09163 12.4781 3.20967 12.511L2.60767 14.734L3.94467 15.097L4.54167 12.898C4.90667 13.006 5.26167 13.106 5.60767 13.199L5.01367 15.387L6.35167 15.75L6.95467 13.533C9.24067 14.015 10.9687 13.875 11.7377 11.817C12.3577 10.16 11.7627 9.18403 10.5677 8.53103H10.5697ZM7.17799 4.39913L7.17802 4.39914C8.12138 4.6286 10.0546 5.09884 9.67067 6.51503C9.29439 7.90085 7.30429 7.32415 6.39511 7.06068C6.31364 7.03707 6.24084 7.01597 6.17867 6.99903L6.90267 4.32903V4.33003C6.97889 4.3507 7.07222 4.3734 7.17799 4.39913ZM5.81267 8.34703L5.01267 11.29L5.01367 11.291C5.08794 11.3112 5.17482 11.3361 5.27201 11.3639C6.36305 11.6765 8.75248 12.3613 9.16567 10.837C9.58826 9.27974 7.2743 8.70954 6.14317 8.43082C6.01627 8.39955 5.90426 8.37195 5.81267 8.34703Z" fill="white"/>
</svg>
