<svg xmlns="http://www.w3.org/2000/svg" viewBox="0 0 157.39 154"><defs><style>.cls-1{fill:#f2ba30;}.cls-2{fill:#f2ba31;}</style></defs><g id="Layer_2" data-name="Layer 2"><g id="Layer_2-2" data-name="Layer 2"><path class="cls-1" d="M79.46,0c.24,1.19,1.3,1.74,2.06,2.5q21.48,21.44,43,42.8c1.63,1.61,1.91,2.55.09,4.26-4.56,4.26-9,8.68-13.27,13.2-1.69,1.79-2.65,1.92-4.46.08-8.46-8.62-17.13-17-25.58-25.66-1.89-1.93-2.88-1.85-4.72,0C68.08,45.9,59.35,54.39,50.8,63.07c-1.62,1.64-2.5,1.57-4,0q-6.69-7-13.69-13.64c-1.56-1.48-1.46-2.31,0-3.78Q55,24,76.78,2.18C77.49,1.47,78.17.73,78.86,0Z"/><path class="cls-1" d="M14.13,64.42c4.75-4.55,4.68-4.62,9.34,0C27.25,68.2,31,72,34.84,75.7c1.26,1.21,1.2,2,0,3.17C30,83.65,25.07,88.44,20.27,93.32c-1.35,1.38-2.12.8-3.17-.26Q10.72,86.63,4.26,80.28C3.56,79.59,2.42,79,1.42,78,2.42,77,10.09,68.3,14.13,64.42Z"/><path class="cls-1" d="M48.81,89.79c.67.62,1.28,1.15,1.84,1.71,8.78,8.73,17.6,17.42,26.29,26.25,1.61,1.64,2.42,1.56,4,0,8.69-8.82,17.54-17.48,26.25-26.28,1.43-1.44,2.25-1.69,3.78-.09,4.53,4.72,9.19,9.31,13.9,13.86,1.34,1.3,1.6,2.11.12,3.58q-22.33,22.08-44.52,44.31c-1.24,1.24-1.91,1.17-3.11,0q-22.2-22.22-44.5-44.33c-1-1-1.7-1.76-.28-3.13,5-4.82,9.88-9.76,14.81-14.65C47.8,90.55,48.29,90.21,48.81,89.79Z"/><path class="cls-2" d="M96.52,77.26a13.47,13.47,0,0,1-1,1.16c-5.13,5.12-10.28,10.22-15.38,15.36-.89.9-1.5,1-2.46.07q-7.65-7.72-15.4-15.34c-.9-.88-1.06-1.47-.08-2.43C67.42,71,72.53,65.87,77.67,60.76c.66-.67,1.22-1.31,2.21-.31C85.13,65.73,90.42,71,95.69,76.23A10.79,10.79,0,0,1,96.52,77.26Z"/><path class="cls-2" d="M139,94.49c-.58-.49-1.05-.86-1.47-1.28-4.85-4.81-9.65-9.67-14.57-14.42-1.29-1.25-1.09-2,.08-3.11q7.25-7,14.31-14.25c1.28-1.33,2.07-1.36,3.37,0,4.77,4.89,9.64,9.69,14.52,14.47,1,.94,1.24,1.56.12,2.65-5,4.91-10,9.91-15,14.86A16.24,16.24,0,0,1,139,94.49Z"/><rect class="cls-1" x="5.41" y="64.45" width="26.11" height="26.11" transform="translate(-49.39 35.75) rotate(-45)"/><rect class="cls-1" x="125.88" y="63.86" width="26.11" height="26.11" transform="translate(-13.7 120.77) rotate(-45)"/></g></g></svg>