<svg xmlns="http://www.w3.org/2000/svg" viewBox="0 0 154.86 152.98"><defs><style>.cls-1{fill:#fff;}.cls-2{fill:#c2a634;}.cls-3{fill:#c2a633;}</style></defs><g id="Layer_2" data-name="Layer 2"><g id="Layer_7" data-name="Layer 7"><circle class="cls-1" cx="75.47" cy="78.31" r="54.34"/><path class="cls-2" d="M100,1.94c-.09,0-.11.05-.08.12L98.07,1.6a1.24,1.24,0,0,1-.66-.29Z"/><path class="cls-2" d="M92.68.31c.06,0,.06-.1,0-.14l2.49.6a1.26,1.26,0,0,1-.72-.05Z"/><path class="cls-3" d="M88.5,0h2.42a1.33,1.33,0,0,0,.72.13h2c.34,0,.69,0,1,0,1.86.15,3.71.33,5.54.59a68.78,68.78,0,0,1,12.64,3.05C142.4,14,161,44.34,153,81.21a78.6,78.6,0,0,1-3.71,12.28,93.25,93.25,0,0,1-32.2,41.69C101.55,146.66,84.69,152.47,66.73,153a71.16,71.16,0,0,1-10.15-.52,65.5,65.5,0,0,1-10.9-2.15q-22.8-6.63-35.37-25.83A64.17,64.17,0,0,1,.07,91.58,71.23,71.23,0,0,1,.31,81.8c.14-1.37.13-2.74.37-4.12l.65-4.07a4.09,4.09,0,0,0,.28-.81c.51-2.16,1-4.32,1.63-6.46A84.58,84.58,0,0,1,9.38,51,95.49,95.49,0,0,1,47,11.72,87.51,87.51,0,0,1,72.59,1.83,81.69,81.69,0,0,1,83,.28,17.84,17.84,0,0,1,85.85.13h1.89A1.55,1.55,0,0,0,88.5,0Zm-32,53.41Q55,62.2,53.63,71a4.5,4.5,0,0,0-.08.51.37.37,0,0,1-.44.37H52.6l-8,0c-.17,0-.34,0-.51,0a.35.35,0,0,0-.39.35l-.06.32-1.23,7.65c-.11.68-.1.69.59.69l8.22,0c.94,0,.86-.1.71.86q-2.84,17.58-5.66,35.17c-.14.88-.22.79.64.8l26.24.06,1,0a44.33,44.33,0,0,0,15.82-2.29,39.94,39.94,0,0,0,22.37-17.94,54,54,0,0,0,6.17-16.06,68.27,68.27,0,0,0,1.63-12.28,43.76,43.76,0,0,0-.76-10.46,27.09,27.09,0,0,0-8-14.87,30.67,30.67,0,0,0-12.23-6.77,48.74,48.74,0,0,0-13.89-2c-5.19,0-10.4,0-15.6,0l-9.55,0c-.63,0-.64,0-.74.62,0,.11,0,.22-.05.32Q57.85,44.71,56.46,53.41Z"/><path class="cls-2" d="M65.89,91.7l1.59-9.88c0-.17.06-.34.08-.51s.15-.4.43-.38h.51L84,81c.83,0,.74.09.88-.75q.61-3.75,1.21-7.52c0-.14,0-.29.07-.44s-.07-.3-.27-.3h-.58l-15.47,0c-.85,0-.82.06-.68-.79l3.21-19.94c0-.13,0-.26.06-.39s.17-.44.47-.42c.11,0,.21,0,.32,0,3.35,0,6.71,0,10.06,0A24.58,24.58,0,0,1,94,52.85c5.62,2.77,8.89,7.38,10,13.69a31.56,31.56,0,0,1,.19,8.31,43.09,43.09,0,0,1-1.57,8.07,29.5,29.5,0,0,1-4.47,9.2,24.55,24.55,0,0,1-12.67,9A28.39,28.39,0,0,1,77,102.48c-4.06,0-8.11,0-12.17,0-.62,0-.62,0-.52-.64Q65.07,96.78,65.89,91.7Z"/></g></g></svg>