<svg xmlns="http://www.w3.org/2000/svg" width="41" height="72" viewBox="0 0 41 72" fill="white">
<path d="M19.6246 57.5535L2.68618 45.6848C2.49688 45.5521 2.26409 45.7797 2.39232 45.972L19.3548 71.4135C19.7686 72.034 20.6805 72.034 21.0943 71.4135L38.0568 45.972C38.185 45.7797 37.9522 45.5521 37.7629 45.6848L20.8245 57.5535C20.4641 57.8057 19.9848 57.8057 19.6246 57.5535Z" fill="white"/>
<path d="M40.2744 35.2042L21.1386 0.655699C20.7405 -0.0626826 19.7077 -0.0626826 19.3096 0.655699L0.173828 35.2042H40.2744Z" fill="white"/>
<path d="M20.2246 35.2042H40.2746L21.139 0.655699C20.94 0.296508 20.5822 0.116913 20.2246 0.116913L20.2246 35.2042Z" fill="white"/>
<path d="M19.6256 49.9597L0.492375 36.5531C-0.101625 36.1369 -0.101625 35.2571 0.492375 34.8409L19.6256 21.4344C19.9856 21.182 20.4651 21.182 20.8253 21.4344L39.9585 34.8409C40.5525 35.2571 40.5525 36.1369 39.9585 36.5531L20.8253 49.9597C20.4651 50.2121 19.9856 50.2121 19.6256 49.9597Z" fill="white"/>
<path d="M20.8245 49.9597L39.9577 36.5531C40.5517 36.1369 40.5517 35.2571 39.9577 34.8409L20.8245 21.4344C20.6445 21.3082 20.4345 21.2451 20.2246 21.2451V50.1488C20.4345 50.149 20.6445 50.0859 20.8245 49.9597Z" fill="white"/>
<path d="M34.6938 33.7603C35.0038 34.213 34.9171 34.8628 34.4327 35.2042H40.2744L21.139 0.655699C20.94 0.296508 20.5822 0.116913 20.2246 0.116913V7.63667L34.6938 33.7603Z" fill="white"/>
<path d="M21.0943 71.4133L38.0567 45.9718C38.185 45.7795 37.9522 45.5519 37.7629 45.6846L20.8245 57.5533C20.6445 57.6795 20.4345 57.7426 20.2246 57.7426V71.8787C20.5561 71.8789 20.8876 71.7237 21.0943 71.4133Z" fill="white"/>
<path d="M39.9577 34.8411L32.3338 29.4992L34.694 33.7605C35.0046 34.214 34.9173 34.8656 34.4307 35.2064L20.2246 45.1604V50.1492C20.4345 50.1492 20.6443 50.0861 20.8245 49.9599L39.9577 36.5534C40.5517 36.1371 40.5517 35.2574 39.9577 34.8411Z" fill="white"/>
<path d="M37.7629 45.6846L28.8157 51.9539L20.2246 64.8394V71.8789C20.5561 71.8789 20.8874 71.7237 21.0943 71.4135L38.0567 45.972C38.1852 45.7795 37.9522 45.5519 37.7629 45.6846Z" fill="white"/>
</svg>